<svg width="346" height="284" viewBox="0 0 346 284" fill="none" xmlns="http://www.w3.org/2000/svg">
<path d="M146.99 121.102C146.446 120.638 145.928 120.136 145.436 119.6L146.109 118.77C146.571 119.275 147.06 119.748 147.571 120.185L146.99 121.102Z" fill="#E4E4E4"/>
<path d="M142.737 115.773C141.985 114.367 141.392 112.855 140.974 111.273L141.912 110.938C142.305 112.426 142.863 113.849 143.57 115.171L142.737 115.773ZM140.254 106.401C140.244 106.132 140.239 105.863 140.239 105.593C140.239 104.209 140.368 102.829 140.623 101.476L141.581 101.72C141.341 102.992 141.22 104.291 141.22 105.593C141.22 105.847 141.225 106.1 141.234 106.353L140.254 106.401ZM142.937 97.3463L142.065 96.8249C142.47 95.9119 142.937 95.0376 143.461 94.2103C143.783 93.7029 144.13 93.2183 144.502 92.7592L145.217 93.5395C144.872 93.9653 144.55 94.4148 144.252 94.8854C143.758 95.6641 143.319 96.487 142.938 97.3463H142.937ZM148.365 90.7378L147.902 89.7336C149.168 88.9459 150.535 88.4006 151.951 88.1188L152.118 89.2417C150.806 89.5026 149.538 90.0079 148.365 90.7378H148.365ZM159.859 90.6134C158.676 89.9061 157.401 89.4273 156.086 89.1957L156.233 88.0695C157.654 88.3196 159.03 88.8366 160.308 89.6003L159.859 90.6134Z" fill="#E4E4E4"/>
<path d="M164.136 95.1217C163.814 94.5017 163.442 93.919 163.025 93.3813L163.754 92.6185C164.213 93.2104 164.623 93.8521 164.976 94.5346L164.136 95.1217Z" fill="#E4E4E4"/>
<path d="M126.524 83.0022L125.734 82.3273C126.126 81.7076 126.54 81.0948 126.964 80.5059L127.717 81.2361C127.306 81.8072 126.905 82.4014 126.524 83.0022Z" fill="#E4E4E4"/>
<path d="M175.133 81.685C174.379 80.4701 173.544 79.3262 172.636 78.2637L173.332 77.4608C174.277 78.5659 175.145 79.7558 175.929 81.0194L175.133 81.685ZM130.386 77.9642L129.718 77.1302C130.696 76.0736 131.731 75.0896 132.816 74.1841L133.388 75.1094C132.337 75.9868 131.334 76.9403 130.386 77.9642ZM169.707 75.3374C168.663 74.4479 167.573 73.6344 166.443 72.9014L166.92 71.9065C168.086 72.6625 169.211 73.5017 170.287 74.4193L169.707 75.3374ZM136.676 72.7177L136.208 71.716C137.383 70.9777 138.596 70.3256 139.841 69.7636L140.197 70.8253C138.99 71.37 137.814 72.0021 136.676 72.7177ZM162.943 70.9592C161.742 70.3983 160.512 69.926 159.261 69.545L159.509 68.4429C160.801 68.8362 162.07 69.3236 163.309 69.9023L162.943 70.9592ZM143.894 69.4597L143.656 68.3546C144.951 67.9784 146.266 67.696 147.592 67.5091L147.71 68.6402C146.424 68.8213 145.15 69.095 143.894 69.4597V69.4597ZM155.454 68.6809C154.17 68.4865 152.877 68.3855 151.583 68.3785L151.587 67.2393C152.923 67.2467 154.256 67.3509 155.581 67.5514L155.454 68.6809Z" fill="#E4E4E4"/>
<path d="M177.934 87.56C177.692 86.8728 177.425 86.189 177.138 85.5276L178.015 85.0159C178.313 85.704 178.591 86.415 178.842 87.1294L177.934 87.56Z" fill="#E4E4E4"/>
<path d="M180.623 154.506L180.286 153.436C180.89 153.179 181.499 152.904 182.096 152.619L182.47 153.672C181.861 153.963 181.24 154.244 180.623 154.506Z" fill="#E4E4E4"/>
<path d="M165.326 157.986L165.291 156.847C166.564 156.793 167.85 156.68 169.115 156.51L169.227 157.642C167.937 157.815 166.625 157.931 165.326 157.986ZM161.414 157.972C160.114 157.908 158.803 157.784 157.515 157.601L157.634 156.47C158.896 156.649 160.182 156.771 161.456 156.834L161.414 157.972ZM173.093 156.945L172.904 155.826C174.154 155.542 175.409 155.197 176.636 154.8L176.9 155.897C175.648 156.302 174.368 156.655 173.093 156.945ZM153.654 156.873C152.38 156.573 151.102 156.209 149.854 155.792L150.125 154.698C151.348 155.106 152.601 155.462 153.849 155.757L153.654 156.873ZM146.139 154.364C144.924 153.834 143.711 153.239 142.535 152.598L142.952 151.567C144.105 152.195 145.293 152.778 146.485 153.298L146.139 154.364ZM139.063 150.505C137.938 149.76 136.821 148.952 135.744 148.102L136.295 147.16C137.351 147.993 138.446 148.785 139.549 149.516L139.063 150.505Z" fill="#E4E4E4"/>
<path d="M132.588 145.384C132.076 144.899 131.569 144.394 131.081 143.882L131.738 143.036C132.215 143.535 132.709 144.028 133.209 144.502L132.588 145.384Z" fill="#E4E4E4"/>
<path d="M105.429 30.5201L104.925 29.5426C105.488 29.151 106.062 28.7633 106.632 28.3903L107.114 29.3822C106.552 29.7507 105.985 30.1334 105.429 30.5201Z" fill="#E4E4E4"/>
<path d="M199.874 46.0784C199.033 44.9414 198.149 43.8198 197.244 42.7453L197.946 41.9491C198.865 43.0412 199.764 44.1808 200.618 45.3363L199.874 46.0784ZM194.436 39.6147C193.477 38.6125 192.477 37.6311 191.461 36.6981L192.07 35.8047C193.102 36.7528 194.119 37.7498 195.093 38.7681L194.436 39.6147ZM188.334 33.9984C187.273 33.1333 186.181 32.2898 185.089 31.4918L185.612 30.5276C186.718 31.3358 187.823 32.1899 188.898 33.0661L188.334 33.9984ZM181.739 29.1802C180.611 28.4463 179.451 27.7363 178.292 27.0699L178.727 26.049C179.901 26.7237 181.076 27.443 182.219 28.1863L181.739 29.1802ZM110.558 27.2589L110.121 26.2394C111.294 25.5602 112.499 24.9076 113.7 24.2994L114.092 25.3437C112.906 25.9441 111.717 26.5884 110.558 27.2589L110.558 27.2589ZM174.756 25.1683C173.568 24.572 172.351 24.004 171.139 23.4802L171.482 22.4126C172.709 22.9433 173.942 23.5186 175.145 24.1225L174.756 25.1683ZM117.706 23.6414L117.36 22.5752C118.586 22.0399 119.841 21.5335 121.091 21.0704L121.39 22.1558C120.155 22.613 118.916 23.1129 117.706 23.6414L117.706 23.6414ZM167.453 22.0106C166.22 21.56 164.959 21.1406 163.706 20.7641L163.952 19.6612C165.221 20.0426 166.498 20.4676 167.748 20.9241L167.453 22.0106ZM125.134 20.8905L124.884 19.7888C126.15 19.4014 127.443 19.0462 128.727 18.7332L128.929 19.8479C127.661 20.1572 126.384 20.508 125.134 20.8905L125.134 20.8905ZM159.908 19.7429C158.642 19.442 157.351 19.1752 156.071 18.9499L156.217 17.8237C157.515 18.0518 158.823 18.3221 160.105 18.6267L159.908 19.7429ZM132.764 19.0315L132.612 17.906C133.906 17.67 135.223 17.4692 136.528 17.3093L136.631 18.4422C135.343 18.6002 134.042 18.7984 132.764 19.0315V19.0315ZM152.202 18.3868C150.916 18.2381 149.608 18.1263 148.314 18.0542L148.361 16.9164C149.671 16.9893 150.996 17.1026 152.299 17.2532L152.202 18.3868ZM140.518 18.0823L140.465 16.945C141.775 16.8625 143.103 16.8184 144.413 16.8137L144.416 17.9529C143.123 17.9576 141.811 18.0011 140.518 18.0824L140.518 18.0823Z" fill="#E4E4E4"/>
<path d="M203.472 51.4519C203.1 50.8372 202.716 50.2224 202.329 49.6246L203.113 48.9401C203.506 49.5477 203.897 50.1725 204.275 50.7974L203.472 51.4519Z" fill="#E4E4E4"/>
<path d="M158.796 235.677C158.145 235.58 157.495 235.477 156.845 235.367L156.986 234.24C157.631 234.348 158.276 234.451 158.921 234.547L158.796 235.677Z" fill="#E4E4E4"/>
<path d="M152.875 234.619C151.562 234.345 150.234 234.041 148.929 233.716L149.135 232.602C150.429 232.925 151.746 233.226 153.048 233.498L152.875 234.619ZM145.011 232.661C143.714 232.284 142.407 231.878 141.127 231.452L141.397 230.357C142.666 230.779 143.963 231.182 145.249 231.556L145.011 232.661ZM137.28 230.092C136.007 229.616 134.727 229.108 133.474 228.583L133.807 227.511C135.049 228.032 136.319 228.535 137.581 229.009L137.28 230.092ZM129.715 226.926C128.476 226.352 127.228 225.745 126.005 225.122L126.399 224.079C127.613 224.697 128.85 225.299 130.078 225.868L129.715 226.926ZM122.351 223.175C121.147 222.505 119.937 221.802 118.754 221.087L119.208 220.076C120.381 220.786 121.581 221.483 122.775 222.148L122.351 223.175ZM115.22 218.859C114.062 218.1 112.896 217.305 111.753 216.496L112.263 215.524C113.397 216.326 114.554 217.114 115.703 217.867L115.22 218.859ZM108.355 214.001C107.239 213.152 106.121 212.268 105.029 211.376L105.594 210.445C106.677 211.33 107.786 212.206 108.893 213.048L108.355 214.001ZM101.779 208.621C100.712 207.681 99.65 206.704 98.6226 205.719L99.2476 204.84C100.265 205.816 101.316 206.783 102.372 207.714L101.779 208.621ZM95.5727 202.667C94.5784 201.63 93.5899 200.554 92.6347 199.471L93.3203 198.656C94.2658 199.728 95.2443 200.793 96.2285 201.82L95.5727 202.667ZM89.8142 196.134C88.8982 195.004 87.9906 193.836 87.1169 192.663L87.8589 191.918C88.7237 193.079 89.622 194.235 90.5286 195.353L89.8142 196.134ZM84.5476 189.063C83.7164 187.847 82.8966 186.594 82.1112 185.34L82.9047 184.67C83.682 185.912 84.4934 187.151 85.3161 188.355L84.5476 189.063Z" fill="#E4E4E4"/>
<path d="M79.8003 181.482C79.4363 180.846 79.0783 180.206 78.7264 179.562L79.5545 178.952C79.9029 179.588 80.2573 180.222 80.6175 180.851L79.8003 181.482Z" fill="#E4E4E4"/>
<path d="M289.667 49.2872L277.439 62.3591L287.157 43.4249C279.5 27.3029 266.978 13.3695 266.978 13.3695C266.978 13.3695 240.999 42.2707 240.999 64.9888C240.999 87.707 252.63 95.6393 266.978 95.6393C281.326 95.6393 292.957 87.707 292.957 64.9888C292.957 59.9322 291.668 54.5696 289.667 49.2872Z" fill="#F2F2F2"/>
<path d="M274.294 63.0668V64.1866C274.236 77.203 272.346 87.359 268.636 94.5103C268.584 94.6156 268.526 94.7154 268.474 94.8207L268.059 94.5269L267.662 94.2386C271.778 86.5163 273.234 75.6009 273.286 64.2476C273.291 63.8817 273.296 63.5102 273.291 63.1388C273.277 58.3325 273.024 53.4707 272.618 48.7475C272.589 48.3816 272.556 48.0102 272.522 47.6388C271.959 41.4078 271.147 35.4539 270.317 30.2817C270.259 29.9158 270.197 29.5499 270.135 29.1896C268.698 20.4417 267.233 14.1053 266.898 12.7028C266.86 12.5309 266.836 12.4367 266.832 12.4145L267.285 12.2649L267.29 12.2593L267.748 12.1096C267.753 12.1318 267.834 12.4478 267.968 13.0354C268.479 15.2307 269.806 21.1901 271.109 29.051C271.167 29.4058 271.229 29.7717 271.286 30.1375C271.964 34.3341 272.627 39.024 273.153 43.9467C273.286 45.183 273.406 46.4026 273.511 47.6055C273.549 47.977 273.582 48.3484 273.611 48.7143C274.05 53.82 274.278 58.6042 274.294 63.0668Z" fill="white"/>
<path d="M271.109 29.051C270.789 29.1009 270.465 29.1508 270.135 29.1896C269.241 29.2966 268.342 29.3502 267.443 29.3504C263.61 29.3563 259.825 28.3637 256.366 26.4456C256.166 26.7394 255.965 27.0332 255.76 27.3325C259.398 29.3946 263.394 30.4641 267.443 30.4591C268.403 30.4588 269.362 30.3996 270.317 30.2817C270.641 30.2429 270.966 30.193 271.286 30.1376C273.926 29.6978 276.494 28.795 278.901 27.46C278.696 27.1551 278.495 26.8558 278.299 26.5619C276.021 27.7982 273.598 28.637 271.109 29.051Z" fill="white"/>
<path d="M273.511 47.6056C273.181 47.6277 272.852 47.6388 272.522 47.6388C272.422 47.6444 272.317 47.6444 272.217 47.6444C268.064 47.6445 263.973 46.4784 260.291 44.2458C256.61 42.0131 253.449 38.7799 251.077 34.822C250.886 35.149 250.695 35.4761 250.508 35.8087C252.981 39.8135 256.24 43.0766 260.015 45.3276C263.79 47.5787 267.973 48.7529 272.217 48.7531C272.351 48.7531 272.484 48.7531 272.618 48.7476C272.952 48.742 273.282 48.7309 273.611 48.7143C278.708 48.4111 283.623 46.4095 287.767 42.9489C287.614 42.6219 287.461 42.2948 287.304 41.9677C283.276 45.3654 278.483 47.3247 273.511 47.6056Z" fill="white"/>
<path d="M274.294 63.0668C273.959 63.1001 273.625 63.1222 273.291 63.1389C272.933 63.1555 272.575 63.1666 272.217 63.1666C266.636 63.1591 261.208 61.053 256.745 57.1635C252.281 53.274 249.023 47.8104 247.458 41.5908C247.243 42.0398 247.028 42.4833 246.823 42.9323C248.586 49.1376 251.989 54.5396 256.548 58.371C261.107 62.2024 266.589 64.2684 272.217 64.2754C272.575 64.2754 272.933 64.2698 273.286 64.2476C273.625 64.2365 273.959 64.2144 274.294 64.1866C281.044 63.5734 287.341 60.0045 291.911 54.2025C291.81 53.7923 291.696 53.3876 291.581 52.9774C287.168 58.8228 280.967 62.4419 274.294 63.0668Z" fill="white"/>
<path d="M39.3671 58.3388L47.3429 75.2716L33.8621 59.7534C18.5408 64.4926 3.87503 75.2426 3.87503 75.2426C3.87503 75.2426 21.7638 111.489 40.7513 116.969C59.7387 122.448 69.174 111.255 72.6348 95.0866C76.0955 78.9186 72.2713 63.8985 53.2839 58.4187C49.0576 57.199 44.2647 57.3579 39.3671 58.3388Z" fill="#F2F2F2"/>
<path d="M47.1758 78.9861L48.1117 79.2562C58.9768 82.4604 67.009 87.0405 72.0911 92.9457C72.1665 93.0303 72.236 93.1189 72.3114 93.2035L71.9657 93.6007L71.6292 93.9777C66.1677 87.4775 57.396 83.2038 47.9197 80.4061C47.615 80.3125 47.3058 80.2175 46.9942 80.1333C42.9737 78.9901 38.8493 78.1025 34.8038 77.4206C34.4911 77.3646 34.1726 77.3127 33.8541 77.2607C28.5104 76.3926 23.3385 75.8711 18.8153 75.5596C18.4957 75.5359 18.1749 75.5176 17.8588 75.5006C10.2009 75.01 4.5515 75.1333 3.29866 75.1716C3.14582 75.1731 3.0613 75.1773 3.04161 75.1773L3.02592 74.6302L3.02243 74.6234L3.00788 74.0708C3.02758 74.0708 3.31126 74.0556 3.83461 74.0467C5.79259 74.0005 11.0935 73.9423 17.9779 74.3697C18.2882 74.3907 18.609 74.4091 18.9286 74.4328C22.5995 74.6811 26.6794 75.0645 30.9204 75.6601C31.9858 75.8076 33.0339 75.9673 34.0647 76.1391C34.3843 76.1857 34.7028 76.2376 35.0155 76.2936C39.3888 77.0301 43.4422 77.9276 47.1758 78.9861Z" fill="white"/>
<path d="M17.9779 74.3697C17.9424 74.7422 17.9058 75.12 17.8588 75.5006C17.7324 76.5345 17.5605 77.5602 17.3437 78.5737C16.4241 82.8941 14.6815 86.9199 12.2442 90.3545C12.4414 90.6513 12.6386 90.9481 12.8393 91.2517C15.4403 87.6493 17.2979 83.4044 18.2703 78.8411C18.5017 77.7592 18.6836 76.6638 18.8153 75.5596C18.8612 75.1844 18.8978 74.8065 18.9286 74.4327C19.198 71.3512 19.0627 68.2401 18.5275 65.2058C18.2232 65.3636 17.9246 65.5174 17.6318 65.6671C18.1156 68.5323 18.2322 71.4648 17.9779 74.3697Z" fill="white"/>
<path d="M34.0647 76.139C34.0038 76.5156 33.9336 76.8895 33.8541 77.2607C33.8346 77.375 33.8093 77.4934 33.7851 77.6064C32.7834 82.2863 30.822 86.6155 28.0681 90.225C25.3141 93.8345 21.8494 96.6173 17.9691 98.336C18.1964 98.63 18.4237 98.9242 18.6568 99.2142C22.6004 97.3937 26.1137 94.5084 28.9056 90.7972C31.6976 87.0861 33.6879 82.656 34.7117 77.8738C34.744 77.7232 34.7762 77.5725 34.8038 77.4206C34.8798 77.0426 34.95 76.6688 35.0155 76.2935C35.9917 70.4762 35.5042 64.4554 33.6114 58.9513C33.3012 59.0446 32.9909 59.1378 32.6796 59.2365C34.5479 64.5941 35.0293 70.4684 34.0647 76.139Z" fill="white"/>
<path d="M47.1758 78.9861C47.123 79.3707 47.0609 79.7526 46.9942 80.1332C46.9217 80.5407 46.8446 80.9469 46.7583 81.3504C45.406 87.6371 42.3363 93.2461 38.009 97.3375C33.6816 101.429 28.3293 103.783 22.7535 104.047C23.077 104.397 23.3958 104.746 23.7216 105.086C29.3332 104.595 34.669 102.063 38.9708 97.8504C43.2726 93.6375 46.3217 87.9577 47.6849 81.6178C47.7713 81.2144 47.853 80.8095 47.9197 80.4061C47.9922 80.0214 48.0543 79.6394 48.1117 79.2562C49.2275 71.5016 47.7636 63.5444 44.0165 56.9959C43.6495 57.01 43.2836 57.0415 42.9131 57.0716C46.7341 63.4549 48.2631 71.3156 47.1758 78.9861Z" fill="white"/>
<path d="M61.704 165.924L58.7157 162.391L62.3798 155.885L68.6511 143.764C68.4462 143.242 68.3826 142.66 68.4688 142.094C68.5551 141.529 68.787 141.008 69.1339 140.599C69.4808 140.191 69.9264 139.914 70.4118 139.806C70.8971 139.698 71.3993 139.763 71.8519 139.993C72.3045 140.224 72.6862 140.608 72.9465 141.096C73.2068 141.584 73.3335 142.152 73.3097 142.725C73.2859 143.298 73.1128 143.85 72.8133 144.306C72.5139 144.763 72.1021 145.103 71.6325 145.282L66.4561 158.222L61.704 165.924Z" fill="#A0616A"/>
<path d="M58.3937 173.99C58.0428 174.621 57.5429 175.121 56.9537 175.431C56.3644 175.74 55.7109 175.847 55.071 175.736C54.462 175.653 53.8873 175.365 53.4173 174.907C52.9474 174.45 52.6027 173.843 52.4256 173.162C52.2951 172.678 52.2571 172.167 52.3143 171.664C52.3714 171.161 52.5223 170.679 52.7563 170.251C54.7554 166.338 58.4424 161.17 58.4794 161.119L58.5381 161.036L64.7567 162.601L58.3937 173.99Z" fill="#387C6D"/>
<path d="M111.594 32.9492L110.863 33.2106L104.694 9.94693C103.747 6.37595 101.618 3.38798 98.7736 1.64032C95.9295 -0.107329 92.604 -0.471503 89.5286 0.627922H89.5285L47.0818 15.8024C45.559 16.3468 44.1435 17.2341 42.9161 18.4137C41.6886 19.5933 40.6733 21.042 39.928 22.6773C39.1828 24.3125 38.7222 26.1021 38.5726 27.944C38.423 29.7859 38.5873 31.644 39.0561 33.4122V33.4122L72.8961 161.039C73.8429 164.61 75.9727 167.598 78.8168 169.345C81.6609 171.093 84.9864 171.457 88.0618 170.358H88.0618L130.509 155.183C133.584 154.084 136.157 151.611 137.662 148.308C139.167 145.006 139.481 141.144 138.534 137.573V137.573L115.253 49.7701L115.985 49.5087L111.594 32.9492Z" fill="#3F3D56"/>
<path d="M90.9252 3.96316L85.3845 5.94393C85.8317 6.57821 86.1376 7.33043 86.2754 8.13434C86.4132 8.93825 86.3786 9.76916 86.1747 10.5539C85.9707 11.3386 85.6038 12.0531 85.106 12.6343C84.6083 13.2156 83.9951 13.6458 83.3204 13.887L59.0032 22.5803C58.3285 22.8214 57.6132 22.8662 56.9201 22.7106C56.227 22.5551 55.5775 22.204 55.0288 21.6884C54.48 21.1727 54.049 20.5083 53.7735 19.7536C53.498 18.9989 53.3866 18.1771 53.4491 17.3607L48.274 19.2107C45.9774 20.0318 44.0557 21.8785 42.9317 24.3448C41.8077 26.811 41.5735 29.6947 42.2806 32.3615L76.0709 159.801C76.778 162.468 78.3684 164.699 80.4924 166.004C82.6163 167.309 85.0998 167.581 87.3965 166.76H87.3965L130.048 151.513C132.344 150.691 134.266 148.845 135.39 146.378C136.514 143.912 136.748 141.028 136.041 138.362L102.251 10.9225C101.544 8.25571 99.9533 6.02432 97.8293 4.7192C95.7054 3.41407 93.2219 3.14212 90.9252 3.96316Z" fill="white"/>
<path d="M262.653 282.198L163.08 240.637C160.721 239.649 158.796 237.615 157.727 234.98C156.658 232.346 156.532 229.327 157.378 226.586L209.286 58.911C210.137 56.1717 211.889 53.9363 214.157 52.695C216.426 51.4538 219.026 51.3083 221.387 52.2902L320.96 93.8512C323.319 94.8394 325.245 96.8738 326.313 99.5081C327.382 102.142 327.508 105.161 326.662 107.903L274.755 275.578C273.904 278.317 272.151 280.552 269.883 281.794C267.614 283.035 265.014 283.18 262.653 282.198Z" fill="#3F3D56"/>
<path d="M264.87 275.677L164.946 233.969C164.219 233.665 163.626 233.038 163.296 232.226C162.967 231.414 162.928 230.483 163.189 229.638L215.44 60.8528C215.702 60.0084 216.242 59.3193 216.942 58.9367C217.641 58.5541 218.443 58.5092 219.17 58.8119L319.094 100.519C319.821 100.824 320.415 101.451 320.744 102.263C321.074 103.075 321.112 104.006 320.852 104.851L268.6 273.636C268.338 274.48 267.798 275.169 267.098 275.552C266.399 275.934 265.598 275.979 264.87 275.677Z" fill="white"/>
<path d="M269.815 77.0126C270.26 77.0126 270.62 76.5942 270.62 76.0782C270.62 75.5621 270.26 75.1438 269.815 75.1438C269.371 75.1438 269.01 75.5621 269.01 76.0782C269.01 76.5942 269.371 77.0126 269.815 77.0126Z" fill="white"/>
<path d="M104.413 101.62C112.899 91.7663 112.899 75.7897 104.413 65.9356C95.9264 56.0815 82.1671 56.0815 73.6807 65.9356C65.1942 75.7896 65.1942 91.7663 73.6807 101.62C82.1671 111.474 95.9264 111.474 104.413 101.62Z" fill="#F05454"/>
<path d="M91.3221 95.8197L80.566 87.3471L81.5052 85.7404L90.41 92.7553L96.846 69.3773L98.438 69.9681L91.3221 95.8197Z" fill="white"/>
<path d="M261.56 187.64C272.309 175.159 272.309 154.924 261.56 142.443C250.811 129.962 233.384 129.962 222.636 142.443C211.887 154.924 211.887 175.159 222.636 187.64C233.384 200.121 250.811 200.121 261.56 187.64Z" fill="#F05454"/>
<path d="M235.46 178.62L231.507 160.064L233.563 159.475L236.835 174.837L259.945 159.146L261.014 161.267L235.46 178.62Z" fill="white"/>
<path d="M63.4364 260.589H67.1521L68.9197 243.948L63.4357 243.948L63.4364 260.589Z" fill="#A0616A"/>
<path d="M62.4886 259.18L69.806 259.18H69.8063C71.0431 259.18 72.2291 259.751 73.1036 260.766C73.9781 261.781 74.4695 263.159 74.4695 264.595V264.771L62.4888 264.771L62.4886 259.18Z" fill="#2F2E41"/>
<path d="M34.5052 258.722L38.179 259.366L42.0694 243.219L37.2532 242.267L34.5052 258.722Z" fill="#A0616A"/>
<path d="M33.7495 257.164L40.9847 258.434L40.985 258.434C42.2078 258.649 43.3071 259.419 44.041 260.574C44.775 261.73 45.0835 263.177 44.8987 264.597L44.8761 264.771L33.0299 262.692L33.7495 257.164Z" fill="#2F2E41"/>
<path d="M56.0256 182.138L64.6661 179.953L69.5124 196.038L69.6639 258.152L62.6109 258.1L59.6625 207.828L40.872 254.28L33.2951 253.225L49.8126 203.429C49.8126 203.429 48.9034 194.631 51.7826 190.232L51.1765 185.657L56.0256 182.138Z" fill="#2F2E41"/>
<path d="M47.9142 170.311C47.7178 169.626 47.6969 168.889 47.8541 168.19C48.0114 167.492 48.3399 166.861 48.7998 166.375L50.6262 164.448L55.775 163.44L58.9945 162.761L66.6283 184.889L51.6014 186.876C50.4985 186.6 50.0579 185.899 50.6997 184.506L47.9142 170.311Z" fill="#387C6D"/>
<path d="M66.1087 166.646L65.6787 161.719L72.041 159.302L83.4621 154.394C83.5833 153.838 83.8471 153.337 84.2187 152.959C84.5902 152.581 85.0519 152.342 85.5427 152.275C86.0335 152.208 86.5303 152.315 86.9673 152.583C87.4043 152.851 87.7611 153.267 87.9902 153.775C88.2194 154.284 88.3103 154.861 88.2508 155.43C88.1913 156 87.9843 156.535 87.6572 156.966C87.33 157.396 86.8981 157.7 86.4186 157.839C85.9391 157.978 85.4346 157.944 84.9718 157.743L73.9642 164.085L66.1087 166.646Z" fill="#A0616A"/>
<path d="M59.182 170.538C58.5685 170.776 57.909 170.803 57.2823 170.617C56.6557 170.431 56.0885 170.04 55.6484 169.49C55.2182 168.982 54.9249 168.34 54.8044 167.642C54.684 166.944 54.7416 166.22 54.9702 165.559C55.1289 165.087 55.3744 164.661 55.6896 164.31C56.0048 163.959 56.3821 163.692 56.7952 163.528C60.4623 161.925 66.1226 160.569 66.1791 160.555L66.2692 160.534L70.2802 166.269L59.182 170.538Z" fill="#387C6D"/>
<path d="M53.5154 161.322C56.6369 161.322 59.1674 158.384 59.1674 154.759C59.1674 151.135 56.6369 148.197 53.5154 148.197C50.3939 148.197 47.8634 151.135 47.8634 154.759C47.8634 158.384 50.3939 161.322 53.5154 161.322Z" fill="#A0616A"/>
<path d="M48.9395 164.109C48.063 164.109 47.1874 164.047 46.3174 163.923L46.1981 163.906L45.2877 158.167C44.9016 155.734 45.3321 153.222 46.4908 151.146C47.6496 149.07 49.4487 147.588 51.5189 147.004C51.6571 146.963 51.8022 146.968 51.9383 147.017C52.0745 147.066 52.1963 147.157 52.2905 147.281L52.5077 147.194C53.339 146.857 54.2192 146.714 55.0982 146.772C55.9771 146.831 56.8376 147.089 57.6304 147.534C58.4232 147.979 59.1328 148.6 59.7187 149.363C60.3046 150.126 60.7554 151.016 61.0453 151.981L61.0991 152.16L59.6501 152.747C59.1986 152.93 58.7879 153.227 58.4479 153.617C58.1078 154.008 57.847 154.481 57.6843 155.003C57.5216 155.525 57.4612 156.083 57.5074 156.635C57.5537 157.188 57.7054 157.722 57.9516 158.198L59.4331 161.061L59.2753 161.153C56.0778 163.067 52.5369 164.08 48.9395 164.109Z" fill="#2F2E41"/>
<path d="M124.926 265.393H0.327032C0.240298 265.393 0.157116 265.353 0.0957852 265.282C0.0344548 265.211 0 265.114 0 265.013C0 264.913 0.0344548 264.816 0.0957852 264.745C0.157116 264.674 0.240298 264.634 0.327032 264.634H124.926C125.013 264.634 125.096 264.674 125.158 264.745C125.219 264.816 125.253 264.913 125.253 265.013C125.253 265.114 125.219 265.211 125.158 265.282C125.096 265.353 125.013 265.393 124.926 265.393Z" fill="#CACACA"/>
<path d="M345.673 284H221.074C220.987 284 220.904 283.96 220.842 283.889C220.781 283.818 220.747 283.721 220.747 283.62C220.747 283.52 220.781 283.423 220.842 283.352C220.904 283.281 220.987 283.241 221.074 283.241H345.673C345.76 283.241 345.843 283.281 345.904 283.352C345.966 283.423 346 283.52 346 283.62C346 283.721 345.966 283.818 345.904 283.889C345.843 283.96 345.76 284 345.673 284Z" fill="#CACACA"/>
<path d="M278 217.725C278.276 217.456 278.499 217.12 278.651 216.741C278.803 216.362 278.882 215.949 278.882 215.53C278.882 215.112 278.803 214.698 278.651 214.319C278.498 213.94 278.276 213.604 278 213.336L276.167 175.885L270.938 177.258L274.395 213.833C274.037 214.402 273.872 215.104 273.929 215.805C273.987 216.506 274.265 217.159 274.709 217.638C275.153 218.118 275.734 218.392 276.341 218.408C276.947 218.424 277.538 218.181 278 217.725H278Z" fill="#9F616A"/>
<path d="M299.232 222.601C298.948 222.344 298.715 222.018 298.551 221.646C298.387 221.273 298.295 220.863 298.282 220.445C298.269 220.027 298.335 219.611 298.476 219.225C298.616 218.84 298.828 218.495 299.096 218.215L299.76 180.712L305.028 181.864L302.714 218.561C303.089 219.114 303.276 219.809 303.24 220.512C303.204 221.215 302.948 221.879 302.518 222.377C302.089 222.875 301.518 223.173 300.912 223.214C300.306 223.256 299.709 223.038 299.232 222.601Z" fill="#9F616A"/>
<path d="M302.02 278.338L306.122 278.337L307.292 267.225L302.019 267.225L302.02 278.338Z" fill="#9F616A"/>
<path d="M300.973 276.782L309.052 276.782H309.053C310.418 276.782 311.728 277.412 312.693 278.533C313.659 279.654 314.201 281.175 314.201 282.76V282.955L300.974 282.955L300.973 276.782Z" fill="#2F2E41"/>
<path d="M276.421 278.338L280.523 278.337L281.693 259.964H276.42L276.421 278.338Z" fill="#9F616A"/>
<path d="M275.374 276.782L283.453 276.782H283.454C284.819 276.782 286.129 277.412 287.094 278.533C288.06 279.654 288.602 281.175 288.602 282.76V282.955L275.374 282.955L275.374 276.782Z" fill="#2F2E41"/>
<path d="M292.946 159.729C296.653 159.729 299.658 156.24 299.658 151.936C299.658 147.631 296.653 144.142 292.946 144.142C289.24 144.142 286.235 147.631 286.235 151.936C286.235 156.24 289.24 159.729 292.946 159.729Z" fill="#9F616A"/>
<path d="M301.476 169.919C301.476 169.919 304.459 170.207 304.708 171.939C304.956 173.671 304.708 178.866 304.708 178.866C304.708 178.866 306.697 185.794 304.708 187.526C302.719 189.257 297.499 189.546 297.499 189.546L301.476 169.919Z" fill="#E4E4E4"/>
<path d="M276.121 209.173L273.387 214.369C273.387 214.369 274.381 237.171 274.63 237.748C274.827 238.087 274.916 238.496 274.879 238.903V242.078L275.624 269.787C275.624 269.787 273.636 270.942 276.121 271.808C278.607 272.674 281.839 272.962 282.336 270.076C282.833 267.189 282.857 243.143 282.833 242.367L283.082 241.212L287.059 224.183L296.256 247.851L301.725 274.405C301.725 274.405 310.002 275.515 308.51 271.763C307.019 268.011 303.465 240.058 303.465 240.058C303.465 240.058 302.719 237.171 302.719 236.594C302.719 236.017 302.471 235.728 302.471 235.151C302.471 234.573 302.222 232.842 302.222 232.842L300.482 214.657L276.121 209.173Z" fill="#2F2E41"/>
<path d="M278.607 165.012C278.607 165.012 275.624 164.723 274.879 167.61C274.133 170.496 267.918 181.464 269.161 182.619C270.404 183.773 279.85 187.814 280.099 187.526C280.347 187.237 278.607 165.012 278.607 165.012Z" fill="#E4E4E4"/>
<path d="M300.762 146.966C300.48 145.748 300.083 144.531 299.275 143.69C298.455 142.844 297.404 142.364 296.307 142.334C295.057 141.492 293.653 141.004 292.209 140.909C290.766 140.814 289.324 141.114 287.999 141.786C287.856 141.45 287.624 141.176 287.337 141.003C287.257 141.805 287.177 142.606 287.098 143.408C286.789 143.138 286.481 142.869 286.173 142.599C286.157 143.074 286.142 143.548 286.127 144.022C285.844 143.74 285.562 143.458 285.279 143.176C285.219 144.856 286.423 146.31 287.784 146.883C289.146 147.456 290.639 147.35 292.085 147.271C292.799 147.231 293.613 147.246 294.095 147.859C294.6 148.501 294.504 149.486 294.517 150.356C294.534 151.579 295.616 150.98 296.158 152.028C296.391 152.376 296.537 152.792 296.579 153.23C296.528 153.627 296.403 154.007 296.215 154.344C295.816 155.302 295.022 158.281 295.401 159.249C296.102 158.793 296.804 158.338 297.505 157.882C297.505 157.882 302.125 152.859 300.762 146.966Z" fill="#2F2E41"/>
<path d="M299.488 186.66C299.488 186.66 304.459 171.939 304.211 170.785C303.962 169.63 297.76 164.893 297.76 164.893C297.524 164.859 297.3 164.826 297.073 164.793C297.107 164.691 297.13 164.585 297.141 164.476L297.248 163.346C297.281 162.996 297.193 162.644 297.003 162.369C296.813 162.094 296.536 161.918 296.234 161.879L288.352 160.876C288.05 160.837 287.748 160.94 287.511 161.161C287.274 161.381 287.122 161.703 287.089 162.053L286.996 163.031C286.581 162.911 286.562 162.864 286.562 162.864C286.562 162.864 279.602 164.146 277.862 164.723C276.121 165.301 277.613 187.237 277.613 187.237C277.613 187.237 276.37 207.442 275.624 208.019C274.879 208.596 275.624 208.307 274.879 210.617C274.78 210.921 276.154 209.221 276.743 209.606C280.621 212.145 296.349 218.083 300.234 217.833C301.475 202.784 298.991 197.917 298.991 197.917L299.488 186.66Z" fill="#E4E4E4"/>
</svg>
