<svg width="327" height="311" viewBox="0 0 327 311" fill="none" xmlns="http://www.w3.org/2000/svg">
<path opacity="0.1" d="M105.141 12.1982C115.216 1.49798 131.036 -0.674828 145.432 0.167769C190.655 2.84769 231.476 28.8629 266.785 58.2913C279.567 68.9447 292.153 80.4251 300.451 95.0964C317.341 124.966 312.333 166.339 288.844 190.942C280.853 199.313 271.168 205.73 261.22 211.421C243.545 221.537 224.458 229.654 204.39 231.968C190.076 233.614 175.585 232.276 161.359 229.974C121.602 223.553 82.588 209.335 49.8847 185.04C35.5412 174.378 22.0193 161.127 16.1078 143.877C10.1963 126.627 13.9802 104.79 28.6412 94.5698C34.7 90.349 41.9437 88.4414 49.0336 86.6509C59.4721 84.0139 70.0775 81.4159 79.4947 76.06C89.2229 70.5246 100.745 59.8205 98.807 47.5833C96.7252 34.4295 95.0886 22.8711 105.141 12.1982Z" fill="#F05454"/>
<path opacity="0.1" d="M56.9812 62.7657C62.6757 62.7657 67.292 57.2642 67.292 50.4778C67.292 43.6914 62.6757 38.1899 56.9812 38.1899C51.2867 38.1899 46.6703 43.6914 46.6703 50.4778C46.6703 57.2642 51.2867 62.7657 56.9812 62.7657Z" fill="#387C6D"/>
<path opacity="0.1" d="M35.3808 28.8277C38.906 28.8277 41.7637 25.422 41.7637 21.2209C41.7637 17.0198 38.906 13.6141 35.3808 13.6141C31.8556 13.6141 28.9979 17.0198 28.9979 21.2209C28.9979 25.422 31.8556 28.8277 35.3808 28.8277Z" fill="#387C6D"/>
<path opacity="0.1" d="M302.964 49.3075C305.134 49.3075 306.892 47.2117 306.892 44.6264C306.892 42.0411 305.134 39.9453 302.964 39.9453C300.795 39.9453 299.036 42.0411 299.036 44.6264C299.036 47.2117 300.795 49.3075 302.964 49.3075Z" fill="#387C6D"/>
<path opacity="0.1" d="M225.83 311C241.058 311 253.404 309.533 253.404 307.723C253.404 305.914 241.058 304.447 225.83 304.447C210.601 304.447 198.256 305.914 198.256 307.723C198.256 309.533 210.601 311 225.83 311Z" fill="#387C6D"/>
<path d="M70.048 190.095L69.9269 197.878L68.958 260.959L60.6636 284.107L32.0781 284.497V193.68L61.9107 190.864L70.048 190.095Z" fill="#5F5D7E"/>
<path opacity="0.1" d="M70.048 190.095L69.9269 197.878L68.958 260.959L60.6636 284.107L32.0781 284.497V193.68L61.9107 190.864L70.048 190.095Z" fill="black"/>
<path d="M70.0481 190.095L69.9269 197.878L68.9581 260.959L60.6636 284.107L62.8468 198.026L62.8403 197.971L61.9107 190.864L70.0481 190.095Z" fill="#5F5D7E"/>
<path opacity="0.1" d="M61.9107 190.864L70.048 190.095L69.9269 197.878L62.8403 197.971L32.0781 198.381V193.68L61.9107 190.864Z" fill="black"/>
<path d="M327 193.68V283.974H320.345L293.721 260.83V191.133L317.508 188.469L318.967 189.268L320.345 190.025L327 193.68Z" fill="#5F5D7E"/>
<path opacity="0.1" d="M327 189.268H320.345V283.975H327V189.268Z" fill="black"/>
<path opacity="0.1" d="M327 189.268V194.46L320.345 194.55L293.721 194.901V191.133L317.508 188.469L318.967 189.268L320.345 190.025V189.268H327Z" fill="black"/>
<path d="M327 186.323V193.68L0 198.026V188.664L30.7688 181.252L298.523 178.911L327 186.323Z" fill="#5F5D7E"/>
<path opacity="0.1" d="M327 186.323V193.68L0 198.026V188.664L327 186.323Z" fill="black"/>
<path d="M226.707 76.056H127.108C122.982 76.056 119.638 80.0415 119.638 84.9579V173.138C119.638 178.054 122.982 182.04 127.108 182.04H226.707C230.832 182.04 234.176 178.054 234.176 173.138V84.9579C234.176 80.0415 230.832 76.056 226.707 76.056Z" fill="#474157"/>
<path d="M225.129 85.6172H128.856V172.073H225.129V85.6172Z" fill="#EDEDF4"/>
<path d="M125.098 130.723C125.969 130.723 126.676 129.882 126.676 128.843C126.676 127.805 125.969 126.963 125.098 126.963C124.227 126.963 123.52 127.805 123.52 128.843C123.52 129.882 124.227 130.723 125.098 130.723Z" fill="#E6E8EC"/>
<path d="M229.394 132.147C230.831 132.147 231.997 130.759 231.997 129.046C231.997 127.333 230.831 125.945 229.394 125.945C227.957 125.945 226.792 127.333 226.792 129.046C226.792 130.759 227.957 132.147 229.394 132.147Z" fill="#E6E8EC"/>
<path d="M187.372 129.179L175.061 120.261C174.805 120.092 174.517 120.006 174.225 120.01C173.933 120.015 173.646 120.11 173.394 120.286C173.142 120.463 172.933 120.714 172.787 121.016C172.642 121.318 172.565 121.66 172.564 122.009V139.352C172.565 139.701 172.642 140.043 172.787 140.345C172.933 140.647 173.142 140.898 173.394 141.075C173.646 141.251 173.933 141.346 174.225 141.351C174.517 141.355 174.805 141.269 175.061 141.1L187.372 132.682C187.633 132.507 187.85 132.253 188.001 131.945C188.152 131.637 188.232 131.287 188.232 130.93C188.232 130.573 188.152 130.223 188.001 129.915C187.85 129.608 187.633 129.353 187.372 129.179ZM196.629 130.68C196.629 126.591 195.611 122.594 193.705 119.194C191.799 115.794 189.089 113.144 185.919 111.579C182.749 110.015 179.261 109.605 175.896 110.403C172.531 111.201 169.44 113.17 167.013 116.061C164.587 118.953 162.935 122.636 162.265 126.647C161.596 130.658 161.94 134.815 163.253 138.592C164.566 142.37 166.789 145.599 169.642 147.871C172.495 150.143 175.849 151.355 179.28 151.355C183.882 151.355 188.294 149.177 191.548 145.3C194.801 141.422 196.629 136.164 196.629 130.68ZM165.29 130.68C165.29 127.383 166.111 124.159 167.648 121.418C169.185 118.676 171.37 116.539 173.927 115.277C176.483 114.015 179.296 113.685 182.01 114.328C184.724 114.972 187.216 116.56 189.173 118.891C191.129 121.223 192.462 124.194 193.002 127.428C193.541 130.662 193.264 134.014 192.205 137.061C191.147 140.107 189.354 142.711 187.053 144.543C184.752 146.375 182.047 147.353 179.28 147.353C177.443 147.353 175.624 146.923 173.926 146.085C172.229 145.247 170.686 144.019 169.387 142.471C168.088 140.923 167.057 139.084 166.355 137.061C165.652 135.038 165.29 132.87 165.29 130.68Z" fill="#F05454"/>
<path d="M263.132 198.611C263.066 198.134 262.942 197.671 262.762 197.238C263.011 196.227 263.171 195.607 263.171 195.607C263.171 195.607 263.171 195.459 263.132 195.217C262.937 193.788 262.314 192.491 261.378 191.567C260.442 190.643 259.257 190.155 258.042 190.193C256.078 190.236 252.353 190.392 248.222 190.946C248.458 188.976 248.739 186.619 249.034 184.193L249.574 184.263C249.698 184.263 249.829 184.263 249.96 184.287H250.134C250.564 184.319 250.99 184.164 251.332 183.85C251.415 183.753 251.478 183.632 251.513 183.5C251.548 183.367 251.555 183.226 251.533 183.089C251.512 182.952 251.462 182.824 251.388 182.716C251.315 182.608 251.22 182.523 251.112 182.469C251.595 182.526 252.082 182.439 252.53 182.216C252.977 181.992 253.371 181.64 253.675 181.189C253.953 180.726 254.103 180.171 254.103 179.602C254.103 179.032 253.953 178.477 253.675 178.014C252.985 176.844 251.522 176.064 251.443 174.687C251.4 173.906 251.839 173.204 252.183 172.514C253.011 170.79 253.342 168.79 253.125 166.821C252.908 164.851 252.155 163.021 250.981 161.611C250.521 161.066 250.036 160.552 249.528 160.07C248.808 156.918 248.055 154.101 247.833 154.012C247.545 153.899 247.05 153.157 246.579 152.522C246.622 151.985 246.614 151.445 246.556 150.911C246.209 148.18 243.937 146.229 242.687 143.819C241.437 141.408 241.211 138.455 241.532 135.693C241.852 132.931 242.661 130.259 243.319 127.564C243.81 125.562 244.219 123.436 243.669 121.451C243.279 120.035 242.432 118.81 241.558 117.659C239.46 114.893 237.041 112.303 234.055 110.638C231.98 109.472 229.708 108.892 227.414 108.945H227.391L227.031 108.968L226.776 108.987L226.52 109.019L226.249 109.05C225.97 109.093 225.695 109.143 225.421 109.21C223.427 108.682 221.391 108.41 219.349 108.398H219.083C218.478 108.356 217.875 108.525 217.349 108.886C216.622 109.491 216.53 110.575 216.311 111.519C215.917 113.099 215.087 114.474 213.954 115.42C213.172 116.091 212.252 116.59 211.506 117.293C210.76 117.995 210.177 119.048 210.377 120.086C210.543 120.955 211.224 121.603 212.013 121.997C211.918 122.137 211.82 122.274 211.728 122.418C211.882 122.492 212.056 122.559 212.196 122.613C213.178 122.961 214.236 123.003 215.231 123.319C215.505 123.407 215.774 123.515 216.036 123.643C215.151 125.627 214.689 127.84 214.691 130.087C214.694 132.583 215.263 135.031 216.335 137.174C217.408 139.317 218.945 141.076 220.786 142.266C220.786 142.399 220.786 142.527 220.786 142.656C220.887 146.729 220.628 151.683 218.881 152.522C217.133 153.36 215.46 154.308 214.429 154.921L214.102 155.127C213.83 154.979 213.558 154.823 213.293 154.659C213.293 154.659 211.902 154.464 212.144 155.728C212.144 155.728 207.938 154.948 205.63 157.09C203.323 159.231 199.535 163.702 198.792 164.868C198.049 166.034 192.305 168.586 192.305 168.586C192.305 168.586 194.115 165.57 193.333 161.876C193.333 161.876 192.468 157.421 192.881 155.635C193.293 153.848 194.364 147.216 194.364 147.216C194.364 147.216 194.514 140.218 191.31 137.008C188.105 133.797 185.876 131.156 187.113 134.277C187.654 135.708 188.26 137.102 188.927 138.455C188.927 138.455 181.264 140.624 183.984 144.01C186.704 147.396 187.444 147.4 187.444 147.4C187.444 147.4 186.537 155.759 186.37 157.316C186.203 158.872 184.734 170.731 184.734 170.731C184.734 170.731 184.652 176.372 185.477 177.246C185.477 177.246 186.017 180.877 189.431 180.756C189.431 180.756 195.938 180.561 197.752 179.688C199.565 178.814 205.823 174.144 206.485 174.437C206.533 174.46 206.576 174.494 206.612 174.538C206.647 174.574 206.68 174.614 206.71 174.655C206.056 176.383 204.504 182.25 205.165 185.133C205.165 185.133 204.589 193.298 208.049 195.923C208.049 195.923 213.074 206.034 211.178 211.476C211.028 211.917 210.894 212.323 210.769 212.717C207.892 209.873 203.503 207.255 196.799 205.808C196.115 205.66 195.434 205.48 194.76 205.285C192.855 204.735 187.614 204.232 185.12 214.105C184.538 216.4 183.798 218.634 182.907 220.784C181.925 223.151 180.835 226.545 180.812 229.912C180.757 234.632 182.802 239.309 190.226 241.025C190.308 244.536 190.645 248.718 191.653 251.726C193.712 257.85 197.008 267.766 197.008 267.766C197.008 267.766 200.963 277.877 201.211 281.958C201.372 284.63 201.607 288.133 201.444 290.54C201.444 290.688 201.424 290.828 201.411 290.969C201.072 291.405 200.702 291.806 200.305 292.166C199.729 292.557 197.833 294.987 197.833 295.568C197.837 296.125 197.879 296.681 197.958 297.23C197.061 298.162 196.57 299.18 196.57 300.194C196.57 305.469 209.129 309.744 224.622 309.744C240.114 309.744 252.671 305.453 252.671 300.194C252.671 295.381 242.196 291.402 228.586 290.746C231.424 289.397 233.944 287.981 234.988 286.846C235.212 286.637 235.383 286.359 235.483 286.042L232.848 278.751C232.848 278.751 232.641 278.806 232.337 278.911L232.154 278.583C230.982 276.457 228.727 272.221 228.727 271.07C228.727 270.645 228.131 267.926 227.267 264.201V252.244C235.862 253.805 246.939 251.683 246.939 251.683L246.988 251.652H247.204V251.511C248.693 250.528 256.143 245.328 258.353 238.431C259.008 236.419 258.193 233.536 256.572 230.454C257.705 227.103 260.5 218.447 260.222 214.995C260.222 214.811 260.202 214.605 260.202 214.402C260.229 214.049 260.24 213.695 260.235 213.341C260.562 208.27 263.181 199.005 263.181 199.005C263.181 199.005 263.165 198.845 263.132 198.611ZM207.486 176.079C208.082 177.328 208.72 178.923 208.972 179.571C208.972 179.571 208.102 177.659 207.503 176.079H207.486ZM208.108 285.344L208.046 285.371V284.981C208.01 283.964 208.031 282.945 208.108 281.93C208.117 281.384 208.021 280.842 207.827 280.347C206.818 277.326 206.143 274.162 205.82 270.934C205.493 267.532 205.221 263.822 205.391 262.878C205.647 261.431 205.856 250.47 205.539 245.067L210.606 246.424L216.498 260.741C216.498 260.741 220.288 267.731 221.463 273.247V278.771C221.119 280.416 220.519 281.97 219.692 283.35C218.91 284.626 218.147 285.917 217.44 287.251C217.224 287.665 216.985 288.09 216.746 288.488C216.668 288.488 212.796 288.757 212.138 289.623C211.732 290.157 211.025 291 210.907 291.847L210.74 291.878C209.98 289.182 208.125 285.344 208.125 285.344H208.108Z" fill="url(#paint0_linear)"/>
<path opacity="0.1" d="M233.034 280.331L231.725 285.402L226.16 291.156L217.977 293.957C217.977 293.957 214.131 291.449 215.44 290.961C215.804 290.824 216.236 290.329 216.674 289.681C216.216 291.671 219.859 289.108 219.859 289.108C219.859 289.108 229.27 281.111 230.252 280.234C230.896 279.725 231.603 279.339 232.347 279.091C232.756 279.851 233.034 280.331 233.034 280.331Z" fill="black"/>
<path d="M233.034 280.331L231.725 285.402L226.16 291.156L217.977 293.957C217.977 293.957 214.131 291.449 215.44 290.961C215.804 290.824 216.236 290.329 216.674 289.682C217.069 289.081 217.434 288.453 217.768 287.801C218.468 286.459 219.227 285.164 220.003 283.9C221.135 281.98 221.845 279.752 222.069 277.421C222.642 272.057 216.831 261.232 216.831 261.232L206.275 235.389L221.005 237.534C221.005 237.534 228.943 270.009 228.943 271.57C228.943 272.74 231.181 276.972 232.347 279.106C232.756 279.851 233.034 280.331 233.034 280.331Z" fill="#FDC2CC"/>
<path d="M224.864 310.356C240.252 310.356 252.726 306.069 252.726 300.78C252.726 295.491 240.252 291.203 224.864 291.203C209.476 291.203 197.002 295.491 197.002 300.78C197.002 306.069 209.476 310.356 224.864 310.356Z" fill="#5F5D7E"/>
<path d="M235.653 286.573C235.553 286.89 235.384 287.169 235.162 287.38C233.139 289.592 225.574 292.88 220.9 294.667C219.675 295.177 218.426 295.6 217.159 295.935C216.013 296.032 213.64 295.155 212.003 293.957C210.367 292.759 211.84 291.059 212.501 290.181C213.162 289.303 217.083 289.042 217.083 289.042C215.201 292.775 219.862 289.498 219.862 289.498C219.862 289.498 229.273 281.501 230.255 280.624C231.237 279.746 233.037 279.258 233.037 279.258L235.653 286.573Z" fill="#387C6D"/>
<path opacity="0.3" d="M235.653 286.573C235.553 286.89 235.384 287.169 235.162 287.38C233.139 289.592 225.574 292.88 220.9 294.667C219.675 295.177 218.426 295.6 217.159 295.935C216.013 296.032 213.64 295.155 212.003 293.957C210.367 292.759 211.84 291.059 212.501 290.181C213.162 289.303 217.083 289.042 217.083 289.042C215.201 292.775 219.862 289.498 219.862 289.498C219.862 289.498 229.273 281.501 230.255 280.624C231.237 279.746 233.037 279.258 233.037 279.258L235.653 286.573Z" fill="black"/>
<path opacity="0.1" d="M235.162 287.388C233.139 289.6 225.574 292.888 220.9 294.675C225.136 290.399 232.239 288.164 235.162 287.388Z" fill="black"/>
<path opacity="0.1" d="M224.864 299.609C227.943 299.609 230.438 298.752 230.438 297.694C230.438 296.636 227.943 295.779 224.864 295.779C221.785 295.779 219.29 296.636 219.29 297.694C219.29 298.752 221.785 299.609 224.864 299.609Z" fill="black"/>
<path d="M227.493 247.177H221.764V297.694H227.493V247.177Z" fill="#5F5D7E"/>
<path opacity="0.1" d="M227.493 249.682V255.533C226.347 255.112 223.732 253.337 221.764 251.94V247.173H222.959L227.493 249.682Z" fill="black"/>
<path d="M213.997 225.184C213.997 225.184 232.91 219.383 237.617 215.042C242.324 210.7 260.808 231.129 258.366 238.837C255.924 246.545 247.034 252.128 247.034 252.128C247.034 252.128 222.448 256.894 218.262 246.951C214.075 237.008 213.997 225.184 213.997 225.184Z" fill="#474157"/>
<path opacity="0.1" d="M213.997 225.184C213.997 225.184 232.91 219.383 237.617 215.042C242.324 210.7 260.808 231.129 258.366 238.837C255.924 246.545 247.034 252.128 247.034 252.128C247.034 252.128 222.448 256.894 218.262 246.951C214.075 237.008 213.997 225.184 213.997 225.184Z" fill="black"/>
<path d="M212.36 222.843C212.36 222.843 231.273 217.043 235.98 212.701C240.687 208.359 259.171 228.788 256.729 236.496C254.288 244.205 245.397 249.787 245.397 249.787C245.397 249.787 220.812 254.554 216.625 244.61C212.439 234.667 212.36 222.843 212.36 222.843Z" fill="#474157"/>
<path d="M194.819 169.651L192.773 168.765C192.773 168.765 194.573 165.742 193.797 162.036C193.797 162.036 192.937 157.566 193.346 155.756C193.755 153.945 194.819 147.31 194.819 147.31C194.819 147.31 194.969 140.288 191.784 137.07C188.599 133.852 186.39 131.219 187.617 134.34C188.154 135.775 188.755 137.175 189.418 138.533C189.418 138.533 181.807 140.706 184.508 144.107C187.208 147.509 187.945 147.505 187.945 147.505C187.945 147.505 187.045 155.892 186.881 157.452C186.717 159.013 185.244 170.911 185.244 170.911C185.244 170.911 185.163 176.567 185.981 177.445C186.163 178.501 186.663 179.441 187.386 180.088C188.11 180.734 189.007 181.043 189.909 180.955C190.491 180.944 197.437 171.796 194.819 169.651Z" fill="#FDC2CC"/>
<path d="M244.245 151.706V157.168L239.499 159.013L231.414 166.105L229.27 167.985L219.696 163.401L213.64 155.795C213.64 155.795 213.935 155.603 214.445 155.287L214.773 155.081C215.797 154.468 217.411 153.52 219.195 152.674C220.979 151.827 221.188 146.865 221.087 142.777V142.387C221.005 139.52 220.759 137.175 220.759 137.175C220.759 137.175 221.758 136.949 223.211 136.692C227.24 135.978 234.759 135.014 234.098 137.956C233.905 138.956 233.905 139.995 234.098 140.994C234.118 141.104 234.137 141.217 234.16 141.326C234.841 144.872 236.949 148.586 236.949 148.586L243.496 151.394L243.679 151.472L244.245 151.706Z" fill="#FDC2CC"/>
<path d="M244.245 153.364V151.706C244.76 151.601 245.285 151.601 245.8 151.706C246.373 151.901 247.459 153.949 247.95 154.144C248.441 154.339 251.446 167.7 251.119 168.87C250.792 170.041 247.698 196.462 247.698 196.462L241.463 204.653L240.235 182.126L244.245 168.765V153.364Z" fill="#FDC2CC"/>
<path d="M211.922 214.706C211.922 214.706 206.223 216.169 206.946 218.314C207.67 220.46 210.858 220.557 210.858 220.557L211.922 214.706Z" fill="#FDC2CC"/>
<path d="M219.859 171.387L215.522 182.524L210.367 187.01L209.467 180.078C209.467 180.078 207.725 175.494 206.976 174.718C206.939 174.674 206.896 174.639 206.848 174.616C206.193 174.324 199.974 179.005 198.174 179.883C196.373 180.76 189.909 180.955 189.909 180.955L192.773 168.765C192.773 168.765 198.501 166.23 199.238 165.059C199.974 163.889 203.738 159.403 206.03 157.257C208.321 155.112 212.501 155.892 212.501 155.892L212.566 155.923L213.64 156.477L216.75 165.547L219.859 171.387Z" fill="#FDC2CC"/>
<path d="M208.485 282.484C208.408 283.501 208.387 284.523 208.422 285.543C208.445 286.631 208.485 287.555 208.485 287.555L206.602 292.237C206.602 292.237 200.138 294.772 201.202 293.699C201.571 293.329 201.761 292.365 201.856 291.09C202.017 288.679 201.784 285.164 201.624 282.484C201.378 278.388 197.45 268.246 197.45 268.246C197.45 268.246 194.177 258.299 192.131 252.155C190.085 246.011 190.822 234.893 190.822 234.893C190.822 234.893 191.149 226.506 192.622 223.971C194.095 221.435 199.823 220.557 199.823 220.557L202.511 231.18C202.511 231.18 204.72 241.127 205.539 242.59C206.357 244.053 206.111 261.509 205.784 263.362C205.617 264.31 205.899 268.043 206.213 271.445C206.534 274.68 207.203 277.853 208.203 280.885C208.398 281.385 208.495 281.933 208.485 282.484Z" fill="#FDC2CC"/>
<path opacity="0.1" d="M208.485 287.555L206.602 292.237C206.602 292.237 200.138 294.772 201.202 293.699C201.571 293.329 201.761 292.365 201.856 291.09C202.089 290.813 202.337 290.508 202.593 290.196C204.238 288.164 206.23 286.577 208.436 285.543C208.445 286.631 208.485 287.555 208.485 287.555Z" fill="black"/>
<path d="M211.437 294.523C211.439 294.541 211.439 294.559 211.437 294.577C211.11 296.43 205.709 298.966 205.709 298.966C205.709 298.966 202.272 299.648 200.308 300.234C200.158 300.282 200.002 300.299 199.846 300.284C198.331 300.148 198.262 296.672 198.262 296.138C198.262 295.603 200.144 293.114 200.717 292.724C201.365 292.084 201.973 291.389 202.537 290.645C204.217 288.572 206.251 286.953 208.501 285.898C208.501 285.898 211.699 292.599 211.437 294.523Z" fill="#387C6D"/>
<path opacity="0.3" d="M211.437 294.523C211.439 294.541 211.439 294.559 211.437 294.577C211.11 296.43 205.709 298.966 205.709 298.966C205.709 298.966 202.272 299.648 200.308 300.234C200.158 300.282 200.002 300.299 199.846 300.284C198.331 300.148 198.262 296.672 198.262 296.138C198.262 295.603 200.144 293.114 200.717 292.724C201.375 292.076 201.992 291.371 202.563 290.614C204.208 288.572 206.201 286.975 208.409 285.933L208.501 285.89C208.501 285.89 211.699 292.599 211.437 294.523Z" fill="black"/>
<path opacity="0.1" d="M211.437 294.523C211.439 294.541 211.439 294.559 211.437 294.577C211.11 296.43 205.709 298.966 205.709 298.966C205.709 298.966 202.272 299.648 200.308 300.234C200.158 300.282 200.002 300.299 199.846 300.284C201.627 298.829 205.945 295.338 206.527 295.26C207.11 295.182 209.98 294.199 211.437 294.523Z" fill="black"/>
<path opacity="0.1" d="M234.173 141.326C232.15 143.312 230.291 143.027 227.466 143.027C225.424 143.027 222.769 143.881 221.097 142.785C221.028 139.738 220.769 137.175 220.769 137.175C220.769 137.175 235.008 133.957 234.108 137.956C233.902 139.069 233.924 140.225 234.173 141.326Z" fill="black"/>
<path d="M238.435 130.169C238.435 133.868 237.202 137.415 235.008 140.031C232.813 142.646 229.837 144.115 226.733 144.115C226.432 144.115 226.131 144.115 225.836 144.076C223.567 143.868 221.398 142.875 219.595 141.219C217.792 139.564 216.433 137.318 215.685 134.757C214.937 132.195 214.831 129.429 215.382 126.797C215.933 124.165 217.116 121.782 218.786 119.939C220.456 118.096 222.54 116.874 224.785 116.421C227.029 115.969 229.335 116.306 231.42 117.392C233.506 118.478 235.281 120.265 236.527 122.534C237.774 124.804 238.438 127.457 238.438 130.169H238.435Z" fill="#FDC2CC"/>
<path opacity="0.1" d="M216.75 165.555L219.859 171.406L215.522 182.543L210.367 187.029L209.467 180.078C209.467 180.078 207.725 175.494 206.976 174.718C207.192 174.09 207.339 173.801 207.339 174.031C207.339 175.006 209.352 179.395 209.352 179.395C215.571 176.859 213.64 167.01 213.64 167.01C213.64 167.01 212.868 158.233 212.566 155.923L213.64 156.477L216.75 165.555Z" fill="black"/>
<path opacity="0.1" d="M244.245 151.706V157.168L239.499 159.013L231.414 166.105L229.27 167.985L219.696 163.401L213.64 155.794C213.64 155.794 213.935 155.603 214.445 155.287L214.773 155.081C218.985 157.363 223.545 158.201 226.802 158.502C228.3 158.653 229.804 158.693 231.306 158.623C243.636 156.282 244.003 152.732 243.695 151.472L244.245 151.706Z" fill="black"/>
<path d="M247.764 240.152C244.677 241.955 241.508 243.551 238.271 244.93C232.625 247.368 220.187 244.15 218.632 243.662C217.077 243.175 205.129 237.519 200.547 235.373C195.964 233.228 194.819 234.983 193.755 234.788C192.691 234.593 191.955 232.155 191.791 231.472C191.627 230.789 194.737 224.841 196.455 221.817C198.174 218.794 203.329 219.379 204.066 219.184C204.802 218.989 209.958 219.184 209.958 219.184C209.958 219.184 209.63 217.234 211.512 211.773C213.394 206.311 208.403 196.169 208.403 196.169C204.966 193.536 205.539 185.344 205.539 185.344C204.72 181.736 207.339 173.446 207.339 174.421C207.339 175.397 209.352 179.785 209.352 179.785C215.571 177.25 213.64 167.4 213.64 167.4C213.64 167.4 212.74 157.16 212.501 155.892C212.262 154.624 213.64 154.819 213.64 154.819C213.906 154.983 214.175 155.139 214.445 155.287C218.753 157.706 223.466 158.588 226.812 158.892C228.309 159.043 229.814 159.084 231.316 159.013C246.265 156.138 243.617 151.554 243.518 151.39L244.245 151.699C249.646 156.38 248.009 171.886 248.009 171.886L245.986 183.46L244.484 192.081C244.484 192.081 249.803 230.505 250.294 232.455C250.785 234.406 247.764 240.152 247.764 240.152Z" fill="#F05454"/>
<path opacity="0.1" d="M207.912 222.598C207.584 222.89 203.902 231.96 206.602 234.495C209.303 237.031 207.912 222.598 207.912 222.598Z" fill="black"/>
<path opacity="0.1" d="M210.53 223.873C210.612 224.166 218.223 238.599 222.396 239.769L210.53 223.873Z" fill="black"/>
<path opacity="0.1" d="M228.864 109.659L227.646 109.967C227.982 109.819 228.325 109.698 228.674 109.604L228.864 109.659Z" fill="black"/>
<path opacity="0.1" d="M247.201 171.886L244.91 183.452C243.741 182.816 242.666 181.959 241.728 180.912C240.998 180.085 240.343 179.138 239.404 178.595C238.196 177.897 236.739 177.991 235.368 177.932C233.655 177.856 231.958 177.51 230.321 176.902C229.845 176.76 229.399 176.502 229.011 176.146C228.232 175.326 228.285 174.004 228.357 172.849C228.499 170.605 228.515 168.352 228.406 166.105C228.386 165.683 228.36 165.262 228.33 164.841C228.2 162.957 227.774 160.772 226.157 159.965C225.326 159.574 224.334 159.606 223.538 159.134C223.423 159.065 223.314 158.984 223.211 158.892C222.033 157.909 221.925 155.939 221.97 154.281C222.04 152.003 222.107 149.723 222.17 147.443C222.23 146.318 222.209 145.189 222.108 144.068C222.029 143.324 221.857 142.598 221.597 141.915C220.887 140.105 219.407 138.595 219.142 136.684C219.128 136.595 219.118 136.505 219.113 136.415C218.975 134.706 219.879 133.115 220.196 131.433C220.831 128.051 218.697 124.345 215.558 123.374C214.576 123.07 213.522 123.011 212.543 122.664C212.387 122.608 212.233 122.543 212.082 122.469C214.452 118.701 218.514 116.228 223.126 116.228C230.435 116.228 236.363 122.469 236.363 130.173C236.363 134.542 234.455 138.439 231.473 140.998C231.492 141.108 231.515 141.221 231.542 141.33C232.311 144.876 234.697 148.589 234.697 148.589L242.108 151.398L242.933 151.71C249.054 156.387 247.201 171.886 247.201 171.886Z" fill="black"/>
<path opacity="0.1" d="M251.224 183.089C251.152 183.089 251.083 183.07 251.014 183.054C251.085 183.045 251.157 183.057 251.224 183.089Z" fill="black"/>
<path d="M225.915 109.272C223.867 108.705 221.772 108.413 219.669 108.402C218.985 108.402 218.252 108.445 217.705 108.894C216.982 109.498 216.89 110.591 216.674 111.535C216.283 113.111 215.459 114.485 214.334 115.436C213.558 116.111 212.645 116.606 211.902 117.316C211.159 118.026 210.593 119.079 210.779 120.117C210.966 121.154 211.944 121.954 212.926 122.286C213.908 122.617 214.953 122.676 215.941 122.996C219.08 123.967 221.211 127.677 220.576 131.051C220.249 132.732 219.355 134.324 219.493 136.032C219.653 138.073 221.234 139.645 221.977 141.537C222.655 143.261 222.609 145.196 222.556 147.06L222.357 153.903C222.304 155.705 222.435 157.874 223.928 158.755C224.727 159.223 225.722 159.173 226.546 159.586C228.163 160.39 228.589 162.578 228.72 164.458C228.907 167.123 228.916 169.801 228.746 172.467C228.671 173.637 228.618 174.944 229.401 175.763C229.788 176.122 230.234 176.38 230.71 176.52C232.347 177.127 234.044 177.474 235.757 177.55C237.132 177.612 238.586 177.519 239.793 178.213C240.733 178.755 241.388 179.707 242.117 180.53C244.21 182.812 246.878 184.204 249.705 184.49C250.31 184.552 250.998 184.536 251.42 184.072C251.842 183.608 251.594 182.605 250.991 182.664C251.503 182.766 252.028 182.704 252.513 182.483C252.997 182.262 253.424 181.891 253.747 181.408C254.023 180.941 254.171 180.385 254.171 179.814C254.171 179.244 254.023 178.687 253.747 178.221C253.063 177.051 251.61 176.27 251.531 174.882C251.489 174.101 251.924 173.395 252.265 172.701C253.085 170.972 253.413 168.973 253.198 167.003C252.983 165.033 252.237 163.2 251.073 161.778C249.538 159.887 247.237 158.451 246.7 156.025C246.343 154.402 246.883 152.697 246.677 151.047C246.35 148.316 244.081 146.366 242.834 143.932C241.587 141.498 241.368 138.552 241.685 135.783C242.003 133.013 242.808 130.322 243.463 127.63C243.95 125.621 244.353 123.487 243.81 121.494C243.42 120.078 242.582 118.849 241.712 117.69C239.627 114.917 237.227 112.319 234.262 110.669C231.296 109.019 227.682 108.379 224.533 109.6" fill="#474157"/>
<path opacity="0.1" d="M225.915 109.272C223.867 108.705 221.772 108.413 219.669 108.402C218.985 108.402 218.252 108.445 217.705 108.894C216.982 109.498 216.89 110.591 216.674 111.535C216.283 113.111 215.459 114.485 214.334 115.436C213.558 116.111 212.645 116.606 211.902 117.316C211.159 118.026 210.593 119.079 210.779 120.117C210.966 121.154 211.944 121.954 212.926 122.286C213.908 122.617 214.953 122.676 215.941 122.996C219.08 123.967 221.211 127.677 220.576 131.051C220.249 132.732 219.355 134.324 219.493 136.032C219.653 138.073 221.234 139.645 221.977 141.537C222.655 143.261 222.609 145.196 222.556 147.06L222.357 153.903C222.304 155.705 222.435 157.874 223.928 158.755C224.727 159.223 225.722 159.173 226.546 159.586C228.163 160.39 228.589 162.578 228.72 164.458C228.907 167.123 228.916 169.801 228.746 172.467C228.671 173.637 228.618 174.944 229.401 175.763C229.788 176.122 230.234 176.38 230.71 176.52C232.347 177.127 234.044 177.474 235.757 177.55C237.132 177.612 238.586 177.519 239.793 178.213C240.733 178.755 241.388 179.707 242.117 180.53C244.21 182.812 246.878 184.204 249.705 184.49C250.31 184.552 250.998 184.536 251.42 184.072C251.842 183.608 251.594 182.605 250.991 182.664C251.503 182.766 252.028 182.704 252.513 182.483C252.997 182.262 253.424 181.891 253.747 181.408C254.023 180.941 254.171 180.385 254.171 179.814C254.171 179.244 254.023 178.687 253.747 178.221C253.063 177.051 251.61 176.27 251.531 174.882C251.489 174.101 251.924 173.395 252.265 172.701C253.085 170.972 253.413 168.973 253.198 167.003C252.983 165.033 252.237 163.2 251.073 161.778C249.538 159.887 247.237 158.451 246.7 156.025C246.343 154.402 246.883 152.697 246.677 151.047C246.35 148.316 244.081 146.366 242.834 143.932C241.587 141.498 241.368 138.552 241.685 135.783C242.003 133.013 242.808 130.322 243.463 127.63C243.95 125.621 244.353 123.487 243.81 121.494C243.42 120.078 242.582 118.849 241.712 117.69C239.627 114.917 237.227 112.319 234.262 110.669C231.296 109.019 227.682 108.379 224.533 109.6" fill="black"/>
<path opacity="0.1" d="M208.403 196.177C208.403 196.177 211.185 197.445 214.131 193.934C217.077 190.423 208.403 196.177 208.403 196.177Z" fill="black"/>
<g opacity="0.1">
<path opacity="0.1" d="M227.146 109.214C227.686 109.086 228.232 109.004 228.782 108.968C228.018 108.912 227.251 108.941 226.491 109.054L227.146 109.214Z" fill="black"/>
<path opacity="0.1" d="M243.558 180.53C242.825 179.707 242.173 178.755 241.23 178.213C240.026 177.519 238.569 177.612 237.194 177.55C235.481 177.475 233.784 177.129 232.147 176.52C231.671 176.38 231.225 176.122 230.838 175.763C230.059 174.944 230.114 173.626 230.183 172.467C230.353 169.801 230.344 167.123 230.157 164.458C230.023 162.578 229.6 160.39 227.98 159.586C227.152 159.173 226.16 159.223 225.362 158.755C223.869 157.874 223.725 155.705 223.787 153.903C223.855 151.622 223.921 149.342 223.987 147.064C224.042 145.196 224.085 143.261 223.407 141.537C222.664 139.645 221.083 138.077 220.923 136.033C220.789 134.328 221.692 132.732 222.01 131.051C222.645 127.669 220.511 123.967 217.372 122.996C216.39 122.691 215.336 122.629 214.357 122.286C213.378 121.942 212.429 121.201 212.226 120.14C212.023 119.079 212.602 118.049 213.345 117.335C214.088 116.622 215.002 116.13 215.781 115.455C216.906 114.506 217.729 113.131 218.118 111.554C218.337 110.61 218.445 109.522 219.149 108.913C219.552 108.615 220.016 108.453 220.491 108.445C220.2 108.445 219.908 108.426 219.62 108.426C218.936 108.426 218.203 108.469 217.656 108.913C216.933 109.522 216.841 110.61 216.625 111.554C216.234 113.131 215.41 114.505 214.285 115.455C213.509 116.13 212.596 116.625 211.853 117.335C211.11 118.045 210.543 119.099 210.73 120.14C210.917 121.182 211.886 121.939 212.864 122.286C213.843 122.633 214.89 122.676 215.879 122.996C219.018 123.967 221.149 127.677 220.514 131.051C220.187 132.732 219.293 134.328 219.43 136.033C219.591 138.077 221.172 139.645 221.915 141.537C222.592 143.261 222.55 145.196 222.494 147.064C222.427 149.342 222.36 151.622 222.295 153.903C222.242 155.705 222.373 157.874 223.866 158.755C224.664 159.223 225.659 159.173 226.484 159.586C228.101 160.39 228.527 162.578 228.658 164.458C228.845 167.123 228.854 169.801 228.684 172.467C228.609 173.637 228.556 174.944 229.339 175.763C229.726 176.122 230.172 176.38 230.648 176.52C232.284 177.129 233.982 177.476 235.695 177.55C237.07 177.612 238.523 177.519 239.731 178.213C240.671 178.755 241.325 179.707 242.059 180.53C244.15 182.813 246.817 184.205 249.643 184.49C250.008 184.541 250.378 184.524 250.739 184.439C248.06 184.07 245.546 182.702 243.558 180.53Z" fill="black"/>
</g>
<path opacity="0.1" d="M192.773 168.765C192.773 168.765 190.154 171.628 190.537 172.799C190.92 173.969 192.773 168.765 192.773 168.765Z" fill="black"/>
<path d="M195.202 205.57C193.313 205.02 188.105 204.513 185.627 214.417C185.05 216.718 184.316 218.958 183.431 221.115C181.055 226.932 177.984 238.892 191.486 241.525L223.892 250.302C223.892 250.302 241.24 252.837 242.386 251.862C243.532 250.887 243.368 248.742 243.368 248.742C243.368 248.742 224.219 248.742 220.455 241.72C216.691 234.698 216.527 225.141 216.527 225.141C216.527 225.141 216.998 210.384 197.215 206.097C196.56 205.949 195.873 205.765 195.202 205.57Z" fill="#474157"/>
<path opacity="0.1" d="M195.202 205.637C193.313 205.086 188.105 204.579 185.627 214.488C185.05 216.788 184.316 219.028 183.431 221.186C181.055 226.998 177.984 238.958 191.486 241.591L223.892 250.368C223.892 250.368 241.24 252.904 242.386 251.929C243.532 250.953 243.368 248.808 243.368 248.808C243.368 248.808 224.219 248.808 220.455 241.786C216.691 234.765 216.527 225.207 216.527 225.207C216.527 225.207 216.998 210.45 197.215 206.163C196.56 206.015 195.873 205.824 195.202 205.637Z" fill="black"/>
<path d="M263.132 195.478C262.944 194.051 262.328 192.753 261.398 191.826C260.468 190.899 259.287 190.406 258.075 190.439C253.414 190.54 239.067 191.281 232.402 196.469C232.402 196.469 227.329 200.37 225.856 200.37C224.383 200.37 204.416 220.655 234.039 238.794C234.039 238.794 249.914 244.177 256.134 231.538C256.134 231.538 260.553 217.963 260.225 213.263C259.898 208.562 263.171 195.884 263.171 195.884C263.171 195.884 263.165 195.732 263.132 195.478Z" fill="#474157"/>
<path opacity="0.1" d="M263.132 198.896C262.759 196.165 260.579 194.191 258.075 194.242C253.414 194.336 239.067 195.022 232.402 199.809C232.402 199.809 227.329 203.409 225.856 203.409C224.383 203.409 204.416 222.133 234.039 238.88C234.039 238.88 249.914 243.85 256.134 232.182C256.134 232.182 260.553 219.649 260.225 215.311C259.898 210.973 263.171 199.27 263.171 199.27C263.171 199.27 263.165 199.13 263.132 198.896Z" fill="black"/>
<path d="M247.296 238.79H242.059V252.081H247.296V238.79Z" fill="#5F5D7E"/>
<path opacity="0.1" d="M67.2298 146.53C67.4901 146.53 67.7011 146.278 67.7011 145.968C67.7011 145.658 67.4901 145.406 67.2298 145.406C66.9695 145.406 66.7584 145.658 66.7584 145.968C66.7584 146.278 66.9695 146.53 67.2298 146.53Z" fill="black"/>
<path opacity="0.1" d="M56.2283 159.969C56.4886 159.969 56.6997 159.717 56.6997 159.407C56.6997 159.097 56.4886 158.845 56.2283 158.845C55.968 158.845 55.757 159.097 55.757 159.407C55.757 159.717 55.968 159.969 56.2283 159.969Z" fill="black"/>
<path opacity="0.1" d="M66.2478 150.887C66.5081 150.887 66.7191 150.636 66.7191 150.325C66.7191 150.015 66.5081 149.764 66.2478 149.764C65.9875 149.764 65.7764 150.015 65.7764 150.325C65.7764 150.636 65.9875 150.887 66.2478 150.887Z" fill="black"/>
<path opacity="0.1" d="M61.3772 156.692C61.6375 156.692 61.8485 156.44 61.8485 156.13C61.8485 155.82 61.6375 155.568 61.3772 155.568C61.1169 155.568 60.9058 155.82 60.9058 156.13C60.9058 156.44 61.1169 156.692 61.3772 156.692Z" fill="black"/>
<path opacity="0.1" d="M55.207 147.138C55.4673 147.138 55.6784 146.887 55.6784 146.577C55.6784 146.266 55.4673 146.015 55.207 146.015C54.9467 146.015 54.7357 146.266 54.7357 146.577C54.7357 146.887 54.9467 147.138 55.207 147.138Z" fill="black"/>
<path opacity="0.1" d="M65.9335 148.219C66.1938 148.219 66.4048 147.967 66.4048 147.657C66.4048 147.347 66.1938 147.095 65.9335 147.095C65.6732 147.095 65.4622 147.347 65.4622 147.657C65.4622 147.967 65.6732 148.219 65.9335 148.219Z" fill="black"/>
<path opacity="0.1" d="M64.3231 152.572C64.5834 152.572 64.7944 152.321 64.7944 152.011C64.7944 151.7 64.5834 151.449 64.3231 151.449C64.0628 151.449 63.8517 151.7 63.8517 152.011C63.8517 152.321 64.0628 152.572 64.3231 152.572Z" fill="black"/>
<path opacity="0.1" d="M59.3706 159.547C59.631 159.547 59.842 159.296 59.842 158.985C59.842 158.675 59.631 158.424 59.3706 158.424C59.1103 158.424 58.8993 158.675 58.8993 158.985C58.8993 159.296 59.1103 159.547 59.3706 159.547Z" fill="black"/>
<path opacity="0.1" d="M58.3494 156.785C58.6097 156.785 58.8207 156.534 58.8207 156.224C58.8207 155.913 58.6097 155.662 58.3494 155.662C58.0891 155.662 57.8781 155.913 57.8781 156.224C57.8781 156.534 58.0891 156.785 58.3494 156.785Z" fill="black"/>
<path opacity="0.1" d="M55.914 150.559C56.1743 150.559 56.3854 150.308 56.3854 149.998C56.3854 149.688 56.1743 149.436 55.914 149.436C55.6537 149.436 55.4427 149.688 55.4427 149.998C55.4427 150.308 55.6537 150.559 55.914 150.559Z" fill="black"/>
<path opacity="0.1" d="M59.9991 162.075C60.2594 162.075 60.4705 161.824 60.4705 161.513C60.4705 161.203 60.2594 160.952 59.9991 160.952C59.7388 160.952 59.5278 161.203 59.5278 161.513C59.5278 161.824 59.7388 162.075 59.9991 162.075Z" fill="black"/>
<path opacity="0.1" d="M57.171 162.777C57.4313 162.777 57.6423 162.526 57.6423 162.215C57.6423 161.905 57.4313 161.654 57.171 161.654C56.9107 161.654 56.6996 161.905 56.6996 162.215C56.6996 162.526 56.9107 162.777 57.171 162.777Z" fill="black"/>
<defs>
<linearGradient id="paint0_linear" x1="221.984" y1="309.724" x2="221.984" y2="108.402" gradientUnits="userSpaceOnUse">
<stop stop-color="#808080" stop-opacity="0.25"/>
<stop offset="0.54" stop-color="#808080" stop-opacity="0.12"/>
<stop offset="1" stop-color="#808080" stop-opacity="0.1"/>
</linearGradient>
</defs>
</svg>
