<svg width="360" height="285" viewBox="0 0 360 285" fill="none" xmlns="http://www.w3.org/2000/svg">
<g clip-path="url(#clip0)">
<path d="M244.332 284.09C243.981 284.399 243.619 284.7 243.253 284.998H198.827C198.572 284.7 198.317 284.399 198.066 284.09C196.015 281.55 194.209 278.808 192.675 275.905C189.027 269.121 187.771 260.226 187.771 251.168C187.771 250.614 187.774 250.061 187.786 249.508C187.826 246.966 187.963 244.421 188.166 241.918C188.203 241.483 188.24 241.052 188.281 240.621C188.61 237.03 189.072 233.535 189.596 230.269C189.663 229.853 189.729 229.441 189.8 229.032C190.869 222.545 192.303 216.128 194.094 209.813C194.094 209.813 194.153 209.828 194.267 209.858C194.596 209.954 195.383 210.179 196.54 210.534C199.725 211.511 205.708 213.48 212.608 216.406C212.984 216.563 213.365 216.727 213.749 216.895C219.586 219.379 225.236 222.309 230.652 225.659C230.988 225.869 231.321 226.083 231.653 226.297V226.327L230.925 250.66L237.429 230.402C238.756 231.444 240.023 232.524 241.232 233.642C241.564 233.947 241.897 234.26 242.219 234.584C244.964 237.183 247.307 240.2 249.166 243.532C258.896 261.646 254.812 274.963 244.332 284.09Z" fill="#F2F2F2"/>
<path d="M238.069 284.998H236.886C236.879 284.697 236.868 284.395 236.849 284.09C236.372 274.936 232.57 264.828 227.393 255.071C227.208 254.716 227.019 254.354 226.82 253.999C224.307 249.359 221.506 244.818 218.612 240.503C218.391 240.167 218.162 239.827 217.932 239.491C214.082 233.817 210.106 228.567 206.514 224.083C206.262 223.763 206.004 223.45 205.749 223.141C200.424 216.547 196.03 211.743 194.267 209.858C194.005 209.58 193.802 209.366 193.661 209.217C193.532 209.072 193.454 208.996 193.44 208.981L193.853 208.553L193.857 208.542L194.278 208.115C194.293 208.134 194.548 208.386 194.999 208.87C195.38 209.271 195.901 209.832 196.54 210.534C198.772 212.976 202.464 217.131 206.735 222.401C206.983 222.706 207.238 223.023 207.493 223.339C210.409 226.976 213.568 231.097 216.698 235.527C217.485 236.641 218.249 237.746 218.989 238.843C219.222 239.179 219.451 239.514 219.673 239.85C222.803 244.513 225.536 248.998 227.873 253.304L228.457 254.384C234.414 265.603 237.621 275.539 238.035 284.09C238.05 284.395 238.061 284.697 238.069 284.998Z" fill="white"/>
<path d="M213.258 215.513C213.047 215.815 212.833 216.112 212.607 216.406C210.913 218.661 208.939 220.677 206.735 222.401C206.414 222.645 206.085 222.897 205.749 223.141C204.832 223.802 203.882 224.413 202.903 224.973C198.872 227.291 194.401 228.676 189.8 229.032C189.652 229.048 189.5 229.059 189.352 229.067C189.286 229.475 189.223 229.883 189.153 230.299C189.301 230.292 189.448 230.284 189.596 230.269C194.47 229.941 199.213 228.498 203.48 226.045C204.524 225.447 205.537 224.792 206.514 224.083C206.846 223.843 207.171 223.591 207.493 223.339C209.849 221.491 211.954 219.323 213.749 216.895C213.964 216.601 214.174 216.303 214.381 216.006C213.997 215.838 213.624 215.674 213.258 215.513Z" fill="white"/>
<path d="M231.055 224.797C230.925 225.087 230.789 225.373 230.652 225.659C228.017 231.081 223.981 235.644 218.989 238.843C218.642 239.068 218.291 239.285 217.932 239.491C217.825 239.556 217.711 239.625 217.604 239.686C213.142 242.243 208.153 243.661 203.052 243.824C197.951 243.987 192.887 242.888 188.281 240.621C188.17 240.567 188.063 240.514 187.956 240.461C187.915 240.896 187.878 241.331 187.849 241.769C187.952 241.819 188.059 241.872 188.166 241.918C192.905 244.174 198.091 245.244 203.306 245.043C208.52 244.841 213.614 243.373 218.176 240.758C218.324 240.674 218.468 240.59 218.612 240.503C218.971 240.289 219.326 240.071 219.673 239.85C224.788 236.558 228.932 231.881 231.653 226.327C231.797 226.041 231.934 225.751 232.067 225.457C231.731 225.236 231.395 225.014 231.055 224.797Z" fill="white"/>
<path d="M241.428 232.776C241.365 233.066 241.302 233.356 241.232 233.642C239.331 241.697 234.561 248.717 227.873 253.304C227.529 253.545 227.175 253.774 226.82 253.999C226.439 254.236 226.059 254.472 225.667 254.693C219.648 258.134 212.718 259.487 205.898 258.553C199.078 257.619 192.729 254.449 187.786 249.508C187.701 249.428 187.619 249.344 187.538 249.26C187.538 249.828 187.534 250.389 187.542 250.954C187.616 251.026 187.693 251.099 187.771 251.168C192.918 255.982 199.394 259.014 206.293 259.839C213.192 260.663 220.168 259.239 226.243 255.766C226.635 255.544 227.019 255.315 227.393 255.071C227.755 254.85 228.106 254.621 228.457 254.384C235.24 249.75 240.138 242.704 242.218 234.584C242.289 234.31 242.359 234.035 242.422 233.756C242.1 233.421 241.764 233.104 241.428 232.776Z" fill="white"/>
<path d="M210.445 170.64H3.8147e-06V7.60864H210.445V170.64Z" fill="white"/>
<path d="M50.9948 41.6345C55.6212 41.6345 59.3716 37.7619 59.3716 32.9849C59.3716 28.2078 55.6212 24.3352 50.9948 24.3352C46.3684 24.3352 42.618 28.2078 42.618 32.9849C42.618 37.7619 46.3684 41.6345 50.9948 41.6345Z" fill="#E6E6E6"/>
<path d="M70.3412 27.2184C69.9714 27.2191 69.6169 27.3713 69.3556 27.6415C69.0943 27.9118 68.9476 28.2781 68.9476 28.66C68.9476 29.0419 69.0943 29.4082 69.3556 29.6784C69.6169 29.9487 69.9714 30.1009 70.3412 30.1016H172.275C172.645 30.1009 172.999 29.9487 173.261 29.6784C173.522 29.4082 173.669 29.0419 173.669 28.66C173.669 28.2781 173.522 27.9118 173.261 27.6415C172.999 27.3713 172.645 27.2191 172.275 27.2184H70.3412Z" fill="#E6E6E6"/>
<path d="M70.3412 35.868C69.9709 35.8672 69.6155 36.0183 69.3531 36.2881C69.0908 36.5579 68.9429 36.9243 68.9421 37.3066C68.9414 37.689 69.0877 38.0559 69.349 38.3269C69.6102 38.5978 69.965 38.7505 70.3353 38.7513H134.779C134.963 38.7516 135.144 38.7146 135.314 38.6423C135.484 38.57 135.638 38.4638 135.768 38.3299C135.898 38.196 136.001 38.037 136.071 37.8619C136.141 37.6869 136.178 37.4992 136.178 37.3096C136.178 37.1201 136.141 36.9324 136.071 36.7574C136.001 36.5823 135.898 36.4233 135.768 36.2894C135.638 36.1555 135.484 36.0493 135.314 35.977C135.144 35.9047 134.963 35.8677 134.779 35.868H70.3412Z" fill="#E6E6E6"/>
<path d="M210.445 170.64H3.8147e-06V7.60864H210.445V170.64ZM2.35541 168.208H208.09V10.0408H2.35541V168.208Z" fill="#E6E6E6"/>
<path d="M11.7623 57.3264V154.295H198.683V57.3264H11.7623ZM197.784 81.3365H152.177V58.2543H197.784V81.3365ZM105.672 81.3365V58.2543H151.279V81.3365H105.672ZM151.279 82.2644V105.347H105.672V82.2644H151.279ZM104.773 81.3365H59.1664V58.2543H104.773V81.3365ZM104.773 82.2644V105.347H59.1664V82.2644H104.773ZM58.2678 105.347H12.661V82.2644H58.2678V105.347ZM58.2678 106.275V129.357H12.661V106.275H58.2678ZM59.1664 106.275H104.773V129.357H59.1664V106.275ZM104.773 130.285V153.367H59.1664V130.285H104.773ZM105.672 130.285H151.279V153.367H105.672V130.285ZM105.672 129.357V106.275H151.279V129.357H105.672ZM152.177 106.275H197.784V129.357H152.177V106.275ZM152.177 105.347V82.2644H197.784V105.347H152.177ZM58.2678 58.2543V81.3365H12.661V58.2543H58.2678ZM12.661 130.285H58.2678V153.367H12.661V130.285ZM152.177 153.367V130.285H197.784V153.367H152.177Z" fill="#E4E4E4"/>
<path d="M88.4948 83.414L69.8959 82.9792C68.0356 75.5378 68.8731 68.4525 70.3577 61.9235L88.9565 62.3583C87.0753 69.2228 86.9164 76.4686 88.4948 83.414Z" fill="#F05454"/>
<path d="M73.5441 66.5769L73.554 65.8462L83.1899 66.2016L83.1795 66.9323L73.5441 66.5769Z" fill="white"/>
<path d="M73.5037 69.4999L73.5136 68.7692L83.149 69.125L83.1391 69.8558L73.5037 69.4999Z" fill="white"/>
<path d="M73.4628 72.4229L73.4731 71.6921L83.1085 72.048L83.0986 72.7787L73.4628 72.4229Z" fill="white"/>
<path d="M73.4224 75.3458L73.4323 74.6151L83.0681 74.971L83.0578 75.7017L73.4224 75.3458Z" fill="white"/>
<path d="M73.3819 78.2688L73.3918 77.5381L83.0276 77.8939L83.0173 78.6247L73.3819 78.2688Z" fill="white"/>
<path d="M48.0554 137.234L29.4565 136.799C27.5961 129.358 28.4337 122.272 29.9182 115.743L48.517 116.178C46.6358 123.042 46.4769 130.288 48.0554 137.234Z" fill="#F0F0F0"/>
<path d="M33.1047 120.397L33.1145 119.666L42.7504 120.021L42.74 120.752L33.1047 120.397Z" fill="white"/>
<path d="M33.0642 123.32L33.0741 122.589L42.7095 122.945L42.6996 123.675L33.0642 123.32Z" fill="white"/>
<path d="M33.0233 126.243L33.0337 125.512L42.669 125.868L42.6592 126.598L33.0233 126.243Z" fill="white"/>
<path d="M32.9829 129.166L32.9928 128.435L42.6286 128.791L42.6183 129.521L32.9829 129.166Z" fill="white"/>
<path d="M32.9425 132.089L32.9523 131.358L42.5882 131.714L42.5778 132.444L32.9425 132.089Z" fill="white"/>
<path d="M145.11 112.644L126.511 112.209C124.651 104.768 125.488 97.6823 126.973 91.1532L145.572 91.588C143.691 98.4525 143.532 105.698 145.11 112.644Z" fill="#F0F0F0"/>
<path d="M130.159 95.8066L130.169 95.0758L139.805 95.4312L139.795 96.1619L130.159 95.8066Z" fill="white"/>
<path d="M130.119 98.7295L130.129 97.9988L139.764 98.3546L139.754 99.0854L130.119 98.7295Z" fill="white"/>
<path d="M130.078 101.652L130.088 100.922L139.724 101.278L139.714 102.008L130.078 101.652Z" fill="white"/>
<path d="M130.038 104.575L130.048 103.845L139.683 104.201L139.673 104.931L130.038 104.575Z" fill="white"/>
<path d="M129.997 107.498L130.007 106.768L139.643 107.124L139.633 107.854L129.997 107.498Z" fill="white"/>
<path d="M137.022 108.004L118.423 107.569C116.563 100.128 117.401 93.0426 118.885 86.5135L137.484 86.9484C135.603 93.8129 135.444 101.059 137.022 108.004Z" fill="#F05454"/>
<path d="M122.072 91.1669L122.081 90.4362L131.717 90.7916L131.707 91.5223L122.072 91.1669Z" fill="white"/>
<path d="M122.031 94.09L122.041 93.3593L131.676 93.7151L131.666 94.4459L122.031 94.09Z" fill="white"/>
<path d="M121.99 97.0129L122.001 96.2821L131.636 96.638L131.626 97.3687L121.99 97.0129Z" fill="white"/>
<path d="M121.95 99.9358L121.96 99.2051L131.595 99.5609L131.585 100.292L121.95 99.9358Z" fill="white"/>
<path d="M121.909 102.859L121.919 102.128L131.555 102.484L131.545 103.215L121.909 102.859Z" fill="white"/>
<path d="M205.619 150.387L187.02 149.952C185.16 142.511 185.998 135.425 187.482 128.896L206.081 129.331C204.2 136.196 204.041 143.442 205.619 150.387Z" fill="#F05454"/>
<path d="M190.669 133.55L190.679 132.819L200.314 133.175L200.304 133.905L190.669 133.55Z" fill="white"/>
<path d="M190.628 136.472L190.638 135.742L200.274 136.098L200.264 136.828L190.628 136.472Z" fill="white"/>
<path d="M190.587 139.396L190.598 138.665L200.233 139.021L200.223 139.751L190.587 139.396Z" fill="white"/>
<path d="M190.547 142.319L190.557 141.588L200.193 141.944L200.182 142.674L190.547 142.319Z" fill="white"/>
<path d="M190.506 145.242L190.516 144.511L200.152 144.867L200.142 145.598L190.506 145.242Z" fill="white"/>
<path d="M185.55 87.1257L166.951 86.6909C165.09 79.2495 165.928 72.1642 167.412 65.6351L186.011 66.0699C184.13 72.9344 183.971 80.1803 185.55 87.1257Z" fill="#F0F0F0"/>
<path d="M170.599 70.2886L170.609 69.5579L180.245 69.9133L180.234 70.644L170.599 70.2886Z" fill="white"/>
<path d="M170.558 73.2116L170.568 72.4808L180.204 72.8367L180.194 73.5674L170.558 73.2116Z" fill="white"/>
<path d="M170.518 76.1346L170.528 75.4038L180.163 75.7597L180.153 76.4904L170.518 76.1346Z" fill="white"/>
<path d="M170.477 79.0575L170.487 78.3268L180.123 78.6826L180.113 79.4134L170.477 79.0575Z" fill="white"/>
<path d="M170.437 81.9805L170.447 81.2498L180.082 81.6056L180.072 82.3363L170.437 81.9805Z" fill="white"/>
<path d="M204.616 134.87C205.258 134.707 205.857 134.4 206.371 133.972C206.885 133.544 207.303 133.005 207.593 132.393C207.884 131.78 208.041 131.109 208.054 130.427C208.066 129.746 207.934 129.069 207.665 128.446L219.393 117.121L211.28 115.107L201.387 126.171C200.403 126.705 199.643 127.594 199.251 128.668C198.858 129.743 198.862 130.929 199.26 132.001C199.658 133.073 200.423 133.958 201.41 134.486C202.397 135.015 203.538 135.151 204.616 134.87H204.616Z" fill="#FFB6B6"/>
<path d="M210.674 125.747L205.205 117.785L225.748 95.8458L230.518 61.264C230.754 59.5547 231.351 57.9199 232.267 56.4757C233.184 55.0315 234.397 53.8134 235.821 52.9078C237.244 52.0022 238.844 51.4314 240.505 51.2358C242.167 51.0402 243.849 51.2246 245.434 51.776C248.295 52.7753 250.655 54.9057 251.997 57.6997C253.338 60.4938 253.552 63.7232 252.59 66.6796L240.42 103.963L210.674 125.747Z" fill="#E4E4E4"/>
<path d="M249.246 273.097L243.174 273.096L240.286 248.916L249.247 248.916L249.246 273.097Z" fill="#FFB6B6"/>
<path d="M252.512 285H248.204L247.435 280.8L245.465 285H234.039C233.492 285 232.958 284.819 232.517 284.484C232.076 284.149 231.75 283.677 231.587 283.137C231.424 282.597 231.433 282.018 231.611 281.483C231.79 280.948 232.129 280.487 232.58 280.165L241.704 273.658V269.413L251.302 270.004L252.512 285Z" fill="#2F2E41"/>
<path d="M286.702 266.717L281.369 269.714L267.639 249.9L275.51 245.478L286.702 266.717Z" fill="#FFB6B6"/>
<path d="M295.081 275.561L291.297 277.687L288.677 274.378L288.891 279.039L278.855 284.678C278.374 284.948 277.822 285.053 277.279 284.976C276.736 284.899 276.232 284.646 275.839 284.252C275.446 283.858 275.185 283.345 275.094 282.787C275.003 282.229 275.088 281.656 275.335 281.151L280.338 270.933L278.372 267.203L287.076 262.986L295.081 275.561Z" fill="#2F2E41"/>
<path d="M251.803 264.486H239.257V218.352L231.489 188.275C225.914 166.766 224.433 144.344 227.126 122.253L227.137 122.162L227.205 122.104C227.404 121.931 247.285 104.957 259.86 117.942C268.336 126.694 260.371 158.165 259.926 159.893V214.146L251.803 264.486Z" fill="#2F2E41"/>
<path d="M223.305 130.633L227.349 88.876C226.824 87.7374 219.262 80.5247 227.169 67.8434L235.71 47.1424L251.705 46.8857L251.772 46.9553C255.535 50.8323 258.31 55.6105 259.85 60.8639C261.391 66.1173 261.648 71.6826 260.6 77.0637L255.887 101.397L259.971 118.264L223.305 130.633Z" fill="#E4E4E4"/>
<path d="M244.318 218.59L270.094 256.026L279.981 248.767L258.454 203.09L244.318 218.59Z" fill="#2F2E41"/>
<path d="M242.213 42.9344C250.369 42.9344 256.982 36.1066 256.982 27.6839C256.982 19.2613 250.369 12.4335 242.213 12.4335C234.056 12.4335 227.443 19.2613 227.443 27.6839C227.443 36.1066 234.056 42.9344 242.213 42.9344Z" fill="#FFB6B6"/>
<path opacity="0.1" d="M238.583 82.8444L242.627 107.898L238.583 128.777H230.495L234.171 107.898L238.583 82.8444Z" fill="black"/>
<path d="M242.441 150.289C242.932 149.833 243.321 149.271 243.58 148.644C243.838 148.016 243.961 147.338 243.938 146.656C243.915 145.974 243.748 145.306 243.448 144.699C243.148 144.091 242.722 143.558 242.202 143.139L247.383 127.446L239.308 129.614L235.625 144.184C235.001 145.134 234.735 146.288 234.879 147.426C235.023 148.565 235.567 149.61 236.407 150.362C237.247 151.115 238.325 151.523 239.438 151.509C240.55 151.496 241.618 151.061 242.441 150.289Z" fill="#FFB6B6"/>
<path d="M243.626 139.295L235.17 134.93L243.289 105.587L231.728 72.7596C231.157 71.1369 230.939 69.4042 231.089 67.6846C231.239 65.9649 231.753 64.3005 232.596 62.8094C233.44 61.3183 234.59 60.0371 235.967 59.0568C237.343 58.0765 238.912 57.4212 240.561 57.1373C243.541 56.628 246.595 57.3599 249.052 59.1726C251.51 60.9853 253.171 63.7306 253.671 66.8062L259.935 105.615L243.626 139.295Z" fill="#E4E4E4"/>
<path d="M360 284.446C360 284.518 359.987 284.59 359.96 284.657C359.933 284.725 359.894 284.785 359.844 284.837C359.794 284.888 359.735 284.929 359.67 284.956C359.605 284.984 359.536 284.998 359.465 284.998H68.6201C68.4783 284.998 68.3423 284.94 68.242 284.836C68.1417 284.733 68.0854 284.592 68.0854 284.446C68.0854 284.299 68.1417 284.159 68.242 284.055C68.3423 283.952 68.4783 283.894 68.6201 283.894H359.465C359.607 283.894 359.743 283.952 359.843 284.056C359.943 284.159 360 284.3 360 284.446Z" fill="#CACACA"/>
<path d="M299.654 26.9383C297.791 30.0617 293.844 31.4387 290.343 30.8133C286.842 30.1879 283.8 27.8547 281.553 25.013C279.307 22.1713 277.752 18.8263 276.223 15.5151C274.694 12.204 273.146 8.85643 270.911 6.00529C268.675 3.15411 265.649 0.803053 262.154 0.14821C260.251 -0.20817 258.096 0.0271137 256.708 1.41689C255.751 2.45857 255.229 3.84671 255.253 5.28231C254.648 5.06237 254 4.99947 253.366 5.09917C252.732 5.19887 252.131 5.4581 251.617 5.85402C251.103 6.24994 250.691 6.77039 250.417 7.36949C250.144 7.96859 250.017 8.62796 250.049 9.28946C249.997 9.28844 249.946 9.2849 249.894 9.2849C243.381 5.46108 233.494 7.68241 233.494 11.8581C229.92 11.8581 225.552 15.5026 225.552 21.037V21.037C232.943 21.037 237.292 30.8149 232.978 37.8258C231.864 39.614 230.636 41.3238 229.302 42.9436H238.544C239.32 41.7949 239.787 40.455 239.9 39.0596C240.24 40.3274 240.443 41.6299 240.505 42.9436C240.505 42.9436 265.751 46.3026 259.235 20.3194C259.666 20.2972 260.085 20.1659 260.456 19.9372C261.44 19.3249 261.976 18.0299 262.07 16.7158C262.313 16.783 262.556 16.8501 262.798 16.917C264.535 17.4011 266.339 18.0285 267.531 19.4198C269.546 21.7712 269.122 25.3403 269.854 28.3878C270.736 32.0629 273.376 35.0354 276.308 37.3091C279.458 39.7519 283.138 41.6078 287.06 41.9931C290.983 42.3783 295.156 41.1468 297.873 38.2015C300.591 35.2562 301.537 30.5115 299.654 26.9383Z" fill="#2F2E41"/>
</g>
<defs>
<clipPath id="clip0">
<rect width="360" height="285" fill="white"/>
</clipPath>
</defs>
</svg>
