<svg width="467" height="365" viewBox="0 0 467 365" fill="none" xmlns="http://www.w3.org/2000/svg">
<g clip-path="url(#clip0)">
<path d="M246.017 0C234.685 0 225.498 13.2019 225.498 29.4873V50.178H230.413L233.258 42.5119L232.546 50.178H264.132L266.719 43.2088L266.072 50.178H269.628V33.9321C269.628 15.1919 259.057 0 246.017 0Z" fill="#2F2E41"/>
<path d="M241.259 41.8763C241.259 41.8763 243.684 51.9239 241.259 53.1798C238.834 54.4358 236.41 86.4627 236.41 86.4627L255.807 80.1829L259.687 55.0638C259.687 55.0638 252.898 41.2483 253.868 34.9685L241.259 41.8763Z" fill="#FBBEBE"/>
<path d="M297.028 174.38L299.937 181.287C299.937 181.287 317.395 188.195 312.546 199.499C307.696 210.802 295.573 186.939 295.573 186.939L292.178 176.892L297.028 174.38Z" fill="#FBBEBE"/>
<path d="M171.912 145.493L167.548 149.889C167.548 149.889 147.18 161.82 154.454 166.844C161.728 171.868 170.942 156.168 170.942 156.168L176.762 149.888L171.912 145.493Z" fill="#FBBEBE"/>
<path d="M199.069 174.38L207.071 249.423C207.071 249.423 210.708 274.856 217.497 309.395L219.922 326.35L229.62 321.954C229.62 321.954 227.196 293.695 227.681 279.88C228.166 266.064 226.226 250.365 226.226 250.365C226.226 250.365 221.861 198.871 224.771 187.567C227.681 176.264 199.069 174.38 199.069 174.38Z" fill="#FBBEBE"/>
<path opacity="0.1" d="M199.069 174.38L207.071 249.423C207.071 249.423 210.708 274.856 217.497 309.395L219.922 326.35L229.62 321.954C229.62 321.954 227.196 293.695 227.681 279.88C228.166 266.064 226.226 250.365 226.226 250.365C226.226 250.365 221.861 198.871 224.771 187.567C227.681 176.264 199.069 174.38 199.069 174.38Z" fill="black"/>
<path d="M202.464 176.891C202.464 176.891 161.728 199.499 172.882 218.966C184.036 238.433 208.768 264.18 208.768 264.18L213.132 272.972L219.922 262.924L208.768 240.945C208.768 240.945 198.584 220.85 194.22 217.082L229.62 189.451L202.464 176.891Z" fill="#FBBEBE"/>
<path d="M230.59 318.814L218.467 325.094C218.467 325.094 218.952 351.469 214.587 355.865C210.223 360.261 212.163 366.54 219.437 364.657C226.711 362.773 227.196 360.889 227.196 360.889L230.59 343.933L229.62 358.377L232.045 357.749L233.5 342.049C233.5 342.049 237.864 324.466 230.59 318.814Z" fill="#2F2E41"/>
<path d="M211.193 271.088C211.193 271.088 220.407 299.975 219.437 304.999C218.467 310.022 217.982 321.326 225.741 316.302C233.5 311.278 235.925 302.487 235.925 302.487L233.015 280.508L240.289 293.067L242.229 291.183L234.955 276.112C234.955 276.112 226.711 257.9 219.922 259.156L211.193 271.088Z" fill="#2F2E41"/>
<path d="M436.449 363.715H48.9792V364.971H436.449V363.715Z" fill="#2F2E41"/>
<path d="M103.249 341.958C106.194 356.056 116.281 364.787 116.281 364.787C116.281 364.787 121.594 350.661 118.649 336.563C115.704 322.465 105.616 313.734 105.616 313.734C105.616 313.734 100.303 327.86 103.249 341.958Z" fill="#F05454"/>
<path d="M107.576 338.928C115.658 349.115 116.645 364.776 116.645 364.776C116.645 364.776 104.529 363.919 96.4477 353.732C88.3662 343.544 87.3791 327.884 87.3791 327.884C87.3791 327.884 99.4947 328.741 107.576 338.928Z" fill="#3F3D56"/>
<path d="M168.275 15.8152H153.727V34.6545H168.275V15.8152Z" fill="#F2F2F2"/>
<path d="M279.327 260.098C283.344 260.098 286.601 255.881 286.601 250.679C286.601 245.476 283.344 241.259 279.327 241.259C275.31 241.259 272.053 245.476 272.053 250.679C272.053 255.881 275.31 260.098 279.327 260.098Z" fill="#F2F2F2"/>
<path d="M243.684 46.9C251.451 46.9 257.747 38.7465 257.747 28.6886C257.747 18.6308 251.451 10.4773 243.684 10.4773C235.917 10.4773 229.62 18.6308 229.62 28.6886C229.62 38.7465 235.917 46.9 243.684 46.9Z" fill="#FBBEBE"/>
<path d="M239.804 77.671L258.36 52.1694L264.051 58.2037L279.085 68.2514L256.292 121.629C256.292 121.629 249.988 137.957 250.958 147.377C251.928 156.796 249.503 196.359 232.045 205.15C232.045 205.15 205.373 178.147 200.039 180.031C194.705 181.915 194.22 183.799 194.22 183.799C194.22 183.799 199.554 136.073 215.072 122.257C215.072 122.257 223.801 111.582 222.346 103.418C220.891 95.2544 220.407 57.5757 220.407 57.5757L242.014 52.1694L239.804 77.671Z" fill="#3F3D56"/>
<path d="M271.81 66.3674L279.085 68.2516L287.814 129.165L299.452 178.148L286.359 182.543L265.991 93.3706L271.81 66.3674Z" fill="#3F3D56"/>
<path d="M223.316 59.4595L220.406 57.5759L197.129 107.814L169.973 146.121L181.126 158.052L224.771 88.3468L223.316 59.4595Z" fill="#3F3D56"/>
<path d="M251.85 8.12282C250.863 6.40587 249.583 5.00658 248.111 4.03353C246.638 3.06047 245.012 2.53982 243.359 2.51196H242.956C235.189 2.51196 228.893 11.6132 228.893 22.8401V22.8402H231.496L231.916 18.6974L232.532 22.8402H247.967L249.261 19.3353L248.937 22.8402H251.974C253.391 31.9528 251.355 41.0654 245.866 50.178H251.039L253.625 43.1683L252.979 50.178H262.839L264.779 34.0557C264.779 21.9815 259.361 11.7428 251.85 8.12282Z" fill="#2F2E41"/>
<path d="M466.515 287.729H394.153C358.321 287.729 329.276 249.494 329.276 202.324H401.639C437.47 202.324 466.515 240.56 466.515 287.729Z" fill="#F2F2F2"/>
<path d="M467 288.357H382.135C340.153 288.357 305.999 244.129 305.999 189.765V189.137H390.864C432.846 189.137 467 233.365 467 287.729V288.357ZM306.97 190.393C307.233 243.777 340.85 287.101 382.135 287.101H466.029C465.766 233.718 432.149 190.393 390.864 190.393H306.97Z" fill="#3F3D56"/>
<path d="M425.295 214.256H348.189V215.512H425.295V214.256Z" fill="white"/>
<path d="M425.295 221.164H348.189V222.42H425.295V221.164Z" fill="white"/>
<path d="M425.295 228.072H348.189V229.327H425.295V228.072Z" fill="white"/>
<path d="M425.295 234.979H348.189V236.235H425.295V234.979Z" fill="white"/>
<path d="M425.295 241.887H348.189V243.143H425.295V241.887Z" fill="white"/>
<path d="M425.295 248.795H348.189V250.051H425.295V248.795Z" fill="white"/>
<path d="M425.295 255.702H348.189V256.958H425.295V255.702Z" fill="white"/>
<path d="M444.208 277.682C448.225 277.682 451.482 273.465 451.482 268.262C451.482 263.06 448.225 258.843 444.208 258.843C440.19 258.843 436.934 263.06 436.934 268.262C436.934 273.465 440.19 277.682 444.208 277.682Z" fill="#F05454"/>
<path d="M160.516 164.646H88.1538C52.322 164.646 23.2773 126.411 23.2773 79.241H95.6396C131.471 79.241 160.516 117.476 160.516 164.646Z" fill="#F2F2F2"/>
<path d="M161.001 165.274H76.136C34.1544 165.274 0 121.046 0 66.6814V66.0535H84.865C126.847 66.0535 161.001 110.282 161.001 164.646V165.274ZM0.971308 67.3094C1.23367 120.693 34.851 164.018 76.136 164.018H160.03C159.767 110.634 126.15 67.3094 84.865 67.3094H0.971308Z" fill="#3F3D56"/>
<path d="M119.296 91.1724H42.19V92.4283H119.296V91.1724Z" fill="white"/>
<path d="M119.296 98.0803H42.19V99.3363H119.296V98.0803Z" fill="white"/>
<path d="M119.296 104.988H42.19V106.244H119.296V104.988Z" fill="white"/>
<path d="M119.296 111.896H42.19V113.152H119.296V111.896Z" fill="white"/>
<path d="M119.296 118.803H42.19V120.059H119.296V118.803Z" fill="white"/>
<path d="M119.296 125.711H42.19V126.967H119.296V125.711Z" fill="white"/>
<path d="M119.296 132.619H42.19V133.875H119.296V132.619Z" fill="white"/>
<path d="M138.209 154.598C142.226 154.598 145.483 150.381 145.483 145.178C145.483 139.976 142.226 135.759 138.209 135.759C134.191 135.759 130.935 139.976 130.935 145.178C130.935 150.381 134.191 154.598 138.209 154.598Z" fill="#F05454"/>
</g>
<defs>
<clipPath id="clip0">
<rect width="467" height="365" fill="white"/>
</clipPath>
</defs>
</svg>
