<svg width="150" height="150" viewBox="0 0 150 150" fill="none" xmlns="http://www.w3.org/2000/svg">
<g clip-path="url(#clip0)">
<path d="M150 75C150.013 85.1527 147.958 95.2017 143.96 104.534L143.712 105.106C136.948 120.492 125.221 133.166 110.405 141.101C95.5896 149.035 78.541 151.773 61.9859 148.875C61.5355 148.795 61.0858 148.712 60.6368 148.626C55.9978 147.727 51.455 146.387 47.0703 144.626C46.358 144.339 45.6509 144.043 44.949 143.736C44.4697 143.527 43.9904 143.312 43.5155 143.09C30.5257 137.07 19.5278 127.461 11.8179 115.398C4.10802 103.334 0.00762572 89.3171 0 75C0 33.5791 33.5791 0 75 0C116.421 0 150 33.5791 150 75Z" fill="#F05454"/>
<path opacity="0.2" d="M61.9859 148.875C61.5355 148.795 61.0858 148.712 60.6368 148.626C60.3439 140.126 59.3387 122.678 55.9105 104.405C54.0355 94.4046 51.4327 84.1531 47.8224 74.9889C46.5856 71.818 45.1729 68.7185 43.5909 65.7049C39.943 58.8151 35.5185 53.0148 30.1531 49.0851L30.943 48.0067C35.4053 51.2774 39.4156 55.8691 42.9741 61.7818C44.0414 63.5525 45.0665 65.4416 46.0495 67.449C47.1035 69.5969 48.1087 71.8772 49.0651 74.2899C49.6753 75.8254 50.2648 77.4142 50.8336 79.0562C53.3099 86.1856 55.4149 94.3203 57.1486 103.46C57.5325 105.479 57.8979 107.548 58.2448 109.666C60.9319 126.08 61.7418 141.255 61.9859 148.875Z" fill="black"/>
<path opacity="0.2" d="M44.9489 143.736C44.4696 143.527 43.9903 143.312 43.5155 143.09C43.0517 138.053 42.1997 131.805 40.642 125.874C39.9597 123.21 39.0839 120.599 38.0214 118.063C36.244 113.902 33.943 110.365 30.9674 108.184L31.7573 107.108C34.8727 109.389 37.2758 112.995 39.1331 117.213C41.2255 121.966 42.6212 127.498 43.551 132.783C44.2411 136.709 44.676 140.501 44.9489 143.736Z" fill="black"/>
<path opacity="0.2" d="M22.6912 49.0541C26.3785 49.0541 29.3677 46.0649 29.3677 42.3776C29.3677 38.6903 26.3785 35.7011 22.6912 35.7011C19.0039 35.7011 16.0148 38.6903 16.0148 42.3776C16.0148 46.0649 19.0039 49.0541 22.6912 49.0541Z" fill="black"/>
<path opacity="0.2" d="M24.8413 106.526C28.5286 106.526 31.5177 103.537 31.5177 99.85C31.5177 96.1627 28.5286 93.1736 24.8413 93.1736C21.1539 93.1736 18.1648 96.1627 18.1648 99.85C18.1648 103.537 21.1539 106.526 24.8413 106.526Z" fill="black"/>
<path opacity="0.2" d="M49.197 53.592C47.7812 61.5796 50.9066 68.8122 50.9066 68.8122C50.9066 68.8122 56.3274 63.0944 57.7432 55.1068C59.159 47.1193 56.0336 39.8866 56.0336 39.8866C56.0336 39.8866 50.6128 45.6045 49.197 53.592Z" fill="black"/>
<path opacity="0.2" d="M27.0084 72.5528C34.6271 75.3387 42.2829 73.5509 42.2829 73.5509C42.2829 73.5509 37.5862 67.2463 29.9675 64.4604C22.3488 61.6745 14.6931 63.4623 14.6931 63.4623C14.6931 63.4623 19.3897 69.7669 27.0084 72.5528Z" fill="black"/>
<path opacity="0.2" d="M25.7164 123.447C31.0565 125.399 36.4301 124.126 36.4301 124.126C36.4301 124.126 33.1457 119.686 27.8056 117.733C22.4655 115.78 17.0919 117.054 17.0919 117.054C17.0919 117.054 20.3763 121.494 25.7164 123.447Z" fill="black"/>
<path d="M74.846 91.6085C90.9942 91.6085 104.085 78.5178 104.085 62.3696C104.085 46.2213 90.9942 33.1306 74.846 33.1306C58.6978 33.1306 45.6071 46.2213 45.6071 62.3696C45.6071 78.5178 58.6978 91.6085 74.846 91.6085Z" fill="#D0CDE1"/>
<path d="M63.4246 84.7556C63.4246 84.7556 67.0794 102.116 67.0794 103.944C67.0794 105.771 84.44 113.995 84.44 113.995L99.9732 111.253L105.456 94.8065C105.456 94.8065 96.3184 81.1007 96.3184 75.6184L63.4246 84.7556Z" fill="#D0CDE1"/>
<path d="M143.96 104.534L143.712 105.107C136.948 120.492 125.221 133.166 110.405 141.101C95.5896 149.035 78.541 151.773 61.9859 148.875C61.5355 148.795 61.0858 148.712 60.6368 148.626C55.9977 147.727 51.455 146.388 47.0702 144.626C46.358 144.339 45.6509 144.043 44.9489 143.736C44.4697 143.527 43.9904 143.312 43.5155 143.09C39.2114 141.096 35.1064 138.698 31.2559 135.927L27.7899 125.874L29.7381 124.387L33.7455 121.327L38.0214 118.063L39.1331 117.213L55.9105 104.405L57.1486 103.46L65.8691 96.8033L65.8713 96.8011C65.8713 96.8011 75.3018 112.167 89.0081 107.598C102.714 103.03 102.415 89.929 102.415 89.929L143.96 104.534Z" fill="#2F2E41"/>
<path d="M49.4901 38.8127C49.4901 38.8127 58.7733 18.699 76.5662 23.3406C94.3591 27.9823 104.416 34.9447 105.19 41.9071C105.963 48.8696 104.803 59.3132 104.803 59.3132C104.803 59.3132 102.869 45.0016 90.4911 48.096C78.1135 51.1904 58.7733 48.8696 58.7733 48.8696L55.6789 76.7193C55.6789 76.7193 52.1977 71.6909 48.3297 74.7853C44.4617 77.8797 37.1124 45.0016 49.4901 38.8127Z" fill="#2F2E41"/>
<path d="M47.0702 144.626C46.3579 144.34 45.6508 144.043 44.9489 143.736C44.4696 143.527 43.9903 143.312 43.5155 143.09C36.3969 139.789 29.839 135.394 24.0798 130.065C26.119 127.287 27.7899 125.874 27.7899 125.874H41.4963L43.551 132.783L47.0702 144.626Z" fill="#2F2E41"/>
<path d="M131.953 103.03L143.712 105.107C140.565 112.275 136.315 118.906 131.117 124.76L131.953 103.03Z" fill="#2F2E41"/>
</g>
<defs>
<clipPath id="clip0">
<rect width="150" height="150" fill="white"/>
</clipPath>
</defs>
</svg>
