<svg width="655" height="492" viewBox="0 0 655 492" fill="none" xmlns="http://www.w3.org/2000/svg">
<g clip-path="url(#clip0)">
<path d="M571.811 169.258C548.105 150.767 510.976 133.28 469.945 121.28C432.585 110.354 396.146 105.079 367.332 106.426L367.182 102.93C396.339 101.568 433.156 106.887 470.85 117.91C512.264 130.022 549.796 147.716 573.82 166.455L571.811 169.258Z" fill="#CCCCCC"/>
<path d="M569.35 183.501C569.371 199.884 566.079 216.087 559.69 231.052C559.157 232.305 558.601 233.546 558.023 234.776C546.91 258.526 528.412 277.646 505.547 289.017C482.681 300.389 456.798 303.341 432.118 297.393C407.438 291.444 385.417 276.946 369.649 256.262C353.881 235.579 345.294 209.93 345.291 183.501C345.291 180.796 345.379 178.112 345.556 175.448C345.639 174.094 345.748 172.748 345.881 171.41C348.852 141.617 362.671 114.15 384.486 94.6784C406.301 75.2067 434.447 65.2156 463.117 66.7668C491.786 68.3181 518.792 81.2934 538.559 103.015C558.327 124.737 569.349 153.547 569.35 183.501V183.501Z" fill="#30475E"/>
<path opacity="0.1" d="M559.69 231.052C559.157 232.305 558.601 233.546 558.023 234.776C554.749 235.147 551.303 235.416 547.685 235.584C544.69 235.724 541.608 235.794 538.458 235.794C510.947 235.794 477.838 230.496 444.014 220.605C406.32 209.581 372.218 194.161 347.987 177.184C347.162 176.607 346.352 176.028 345.556 175.448C345.639 174.094 345.748 172.748 345.881 171.41C347.166 172.365 348.491 173.322 349.856 174.279C373.801 191.054 407.561 206.309 444.92 217.235C478.448 227.042 511.245 232.295 538.441 232.295C541.551 232.295 544.582 232.226 547.534 232.088C551.835 231.885 555.886 231.54 559.69 231.052Z" fill="black"/>
<path d="M538.458 232.995C510.948 232.996 477.837 227.697 444.015 217.806C406.321 206.782 372.218 191.362 347.987 174.385C323.25 157.054 311.651 139.976 315.325 126.299C318.999 112.621 337.415 104.322 367.182 102.93L367.332 106.426C353.431 107.076 342.103 109.232 333.662 112.834C325.241 116.426 320.158 121.274 318.555 127.243C316.951 133.212 318.879 140.11 324.283 147.746C329.701 155.401 338.305 163.386 349.857 171.479C373.799 188.254 407.56 203.51 444.921 214.436C478.45 224.241 511.244 229.496 538.442 229.496C541.55 229.496 544.58 229.427 547.533 229.289C561.434 228.639 572.762 226.484 581.204 222.882C589.624 219.29 594.707 214.442 596.311 208.472C599.189 197.755 590.489 183.828 571.811 169.258L573.82 166.456C583.431 173.953 590.546 181.343 594.967 188.421C599.706 196.008 601.245 203.073 599.54 209.417C595.866 223.095 577.45 231.394 547.684 232.786C544.689 232.926 541.608 232.995 538.458 232.995Z" fill="#CCCCCC"/>
<path d="M460.284 45.5285C460.993 45.5285 461.568 44.9288 461.568 44.189C461.568 43.4493 460.993 42.8496 460.284 42.8496C459.575 42.8496 459 43.4493 459 44.189C459 44.9288 459.575 45.5285 460.284 45.5285Z" fill="#F2F2F2"/>
<path d="M289.973 103.652C291.193 103.652 292.181 102.62 292.181 101.348C292.181 100.075 291.193 99.0434 289.973 99.0434C288.753 99.0434 287.764 100.075 287.764 101.348C287.764 102.62 288.753 103.652 289.973 103.652Z" fill="#CCCCCC"/>
<path d="M285.266 196.09C287.675 196.09 289.629 194.052 289.629 191.538C289.629 189.024 287.675 186.986 285.266 186.986C282.856 186.986 280.903 189.024 280.903 191.538C280.903 194.052 282.856 196.09 285.266 196.09Z" fill="#CCCCCC"/>
<path d="M547.151 55.2597C548.757 55.2597 550.059 53.9014 550.059 52.2258C550.059 50.5502 548.757 49.1919 547.151 49.1919C545.545 49.1919 544.243 50.5502 544.243 52.2258C544.243 53.9014 545.545 55.2597 547.151 55.2597Z" fill="#CCCCCC"/>
<path d="M650.279 183.069C652.886 183.069 655 180.864 655 178.143C655 175.423 652.886 173.218 650.279 173.218C647.672 173.218 645.558 175.423 645.558 178.143C645.558 180.864 647.672 183.069 650.279 183.069Z" fill="#CCCCCC"/>
<path d="M613.363 101.582C614.482 101.582 615.388 100.636 615.388 99.469C615.388 98.3018 614.482 97.3556 613.363 97.3556C612.244 97.3556 611.337 98.3018 611.337 99.469C611.337 100.636 612.244 101.582 613.363 101.582Z" fill="#CCCCCC"/>
<path d="M367.426 75.6147C369.171 75.6147 370.586 74.1386 370.586 72.3177C370.586 70.4968 369.171 69.0207 367.426 69.0207C365.681 69.0207 364.266 70.4968 364.266 72.3177C364.266 74.1386 365.681 75.6147 367.426 75.6147Z" fill="#CCCCCC"/>
<path d="M606.274 170.269C607.392 170.269 608.299 169.322 608.299 168.155C608.299 166.988 607.392 166.042 606.274 166.042C605.155 166.042 604.248 166.988 604.248 168.155C604.248 169.322 605.155 170.269 606.274 170.269Z" fill="#CCCCCC"/>
<path d="M295.536 258.463C296.928 258.463 298.057 257.285 298.057 255.832C298.057 254.379 296.928 253.202 295.536 253.202C294.144 253.202 293.015 254.379 293.015 255.832C293.015 257.285 294.144 258.463 295.536 258.463Z" fill="#CCCCCC"/>
<path d="M346.458 295.293C347.966 295.293 349.188 294.017 349.188 292.444C349.188 290.871 347.966 289.595 346.458 289.595C344.95 289.595 343.728 290.871 343.728 292.444C343.728 294.017 344.95 295.293 346.458 295.293Z" fill="#CCCCCC"/>
<path d="M425.824 5.62146H420.436V0H417.546V5.62146H412.156V8.63988H417.546V14.2613H420.436V8.63988H425.824V5.62146Z" fill="#CCCCCC"/>
<path d="M550.8 309.795H547.416V306.265H545.601V309.795H542.218V311.689H545.601V315.218H547.416V311.689H550.8V309.795Z" fill="#CCCCCC"/>
<path d="M628.882 291.727H626.353V289.089H624.995V291.727H622.466V293.144H624.995V295.783H626.353V293.144H628.882V291.727Z" fill="#CCCCCC"/>
<path opacity="0.1" d="M459 101.794C464.199 101.794 468.414 97.3964 468.414 91.9715C468.414 86.5466 464.199 82.1488 459 82.1488C453.801 82.1488 449.586 86.5466 449.586 91.9715C449.586 97.3964 453.801 101.794 459 101.794Z" fill="black"/>
<path opacity="0.1" d="M386.682 173.679C391.882 173.679 396.096 169.281 396.096 163.856C396.096 158.431 391.882 154.033 386.682 154.033C381.483 154.033 377.268 158.431 377.268 163.856C377.268 169.281 381.483 173.679 386.682 173.679Z" fill="black"/>
<path opacity="0.1" d="M490.666 272.352C495.865 272.352 500.08 267.954 500.08 262.529C500.08 257.104 495.865 252.707 490.666 252.707C485.467 252.707 481.252 257.104 481.252 262.529C481.252 267.954 485.467 272.352 490.666 272.352Z" fill="black"/>
<path opacity="0.1" d="M459 188.859C464.199 188.859 468.414 184.461 468.414 179.036C468.414 173.611 464.199 169.214 459 169.214C453.801 169.214 449.586 173.611 449.586 179.036C449.586 184.461 453.801 188.859 459 188.859Z" fill="black"/>
<path opacity="0.1" d="M391.389 242.884C396.589 242.884 400.803 238.486 400.803 233.061C400.803 227.636 396.589 223.239 391.389 223.239C386.19 223.239 381.975 227.636 381.975 233.061C381.975 238.486 386.19 242.884 391.389 242.884Z" fill="black"/>
<path opacity="0.1" d="M509.494 136.174C514.694 136.174 518.909 131.776 518.909 126.351C518.909 120.926 514.694 116.528 509.494 116.528C504.295 116.528 500.08 120.926 500.08 126.351C500.08 131.776 504.295 136.174 509.494 136.174Z" fill="black"/>
<path opacity="0.1" d="M540.732 202.7C545.932 202.7 550.146 198.302 550.146 192.877C550.146 187.453 545.932 183.055 540.732 183.055C535.533 183.055 531.318 187.453 531.318 192.877C531.318 198.302 535.533 202.7 540.732 202.7Z" fill="black"/>
<path d="M459 149.122C465.854 149.122 471.41 143.325 471.41 136.174C471.41 129.023 465.854 123.226 459 123.226C452.147 123.226 446.591 129.023 446.591 136.174C446.591 143.325 452.147 149.122 459 149.122Z" fill="white"/>
<path d="M459 117.421C454.347 117.421 449.885 119.35 446.594 122.783C443.304 126.216 441.456 130.872 441.456 135.727C441.456 145.837 459 179.036 459 179.036C459 179.036 476.545 145.837 476.545 135.727C476.545 130.872 474.696 126.216 471.406 122.783C468.116 119.35 463.653 117.421 459 117.421ZM459 144.657C457.392 144.657 455.82 144.159 454.483 143.227C453.146 142.295 452.104 140.97 451.489 139.42C450.873 137.87 450.712 136.164 451.026 134.519C451.34 132.873 452.114 131.361 453.251 130.175C454.388 128.989 455.837 128.181 457.414 127.853C458.991 127.526 460.626 127.694 462.112 128.336C463.597 128.978 464.867 130.066 465.76 131.461C466.654 132.856 467.131 134.496 467.131 136.174C467.131 137.288 466.92 138.391 466.512 139.42C466.103 140.449 465.504 141.384 464.749 142.172C463.994 142.96 463.098 143.585 462.112 144.011C461.125 144.437 460.068 144.657 459 144.657Z" fill="#CCCCCC"/>
<path d="M391.389 204.486C398.243 204.486 403.799 198.689 403.799 191.538C403.799 184.387 398.243 178.59 391.389 178.59C384.536 178.59 378.98 184.387 378.98 191.538C378.98 198.689 384.536 204.486 391.389 204.486Z" fill="white"/>
<path d="M391.389 172.786C386.736 172.786 382.274 174.714 378.983 178.147C375.693 181.58 373.845 186.236 373.845 191.092C373.845 201.202 391.389 234.401 391.389 234.401C391.389 234.401 408.934 201.202 408.934 191.092C408.934 188.688 408.48 186.307 407.598 184.086C406.717 181.865 405.424 179.847 403.795 178.147C402.166 176.447 400.232 175.099 398.103 174.179C395.975 173.259 393.693 172.786 391.389 172.786ZM391.389 200.021C389.781 200.021 388.209 199.524 386.872 198.592C385.535 197.659 384.493 196.335 383.878 194.784C383.262 193.234 383.101 191.529 383.415 189.883C383.729 188.237 384.503 186.726 385.64 185.539C386.777 184.353 388.226 183.545 389.803 183.218C391.38 182.89 393.015 183.058 394.501 183.7C395.986 184.343 397.256 185.43 398.15 186.825C399.043 188.22 399.52 189.86 399.52 191.538C399.52 192.652 399.309 193.755 398.901 194.784C398.492 195.814 397.893 196.749 397.138 197.537C396.383 198.324 395.487 198.949 394.501 199.376C393.514 199.802 392.457 200.021 391.389 200.021Z" fill="#CCCCCC"/>
<path d="M540.732 164.302C547.586 164.302 553.142 158.505 553.142 151.354C553.142 144.203 547.586 138.406 540.732 138.406C533.879 138.406 528.323 144.203 528.323 151.354C528.323 158.505 533.879 164.302 540.732 164.302Z" fill="white"/>
<path d="M540.732 132.602C538.428 132.602 536.147 133.075 534.018 133.995C531.89 134.915 529.956 136.264 528.326 137.963C526.697 139.663 525.405 141.681 524.523 143.902C523.642 146.123 523.188 148.504 523.188 150.908C523.188 161.018 540.732 194.217 540.732 194.217C540.732 194.217 558.277 161.018 558.277 150.908C558.277 148.504 557.823 146.123 556.941 143.902C556.06 141.681 554.767 139.663 553.138 137.963C551.509 136.264 549.575 134.915 547.446 133.995C545.318 133.075 543.036 132.602 540.732 132.602ZM540.732 159.837C539.124 159.837 537.552 159.34 536.215 158.408C534.878 157.476 533.836 156.151 533.221 154.601C532.605 153.05 532.444 151.345 532.758 149.699C533.072 148.054 533.846 146.542 534.983 145.356C536.12 144.169 537.569 143.361 539.146 143.034C540.723 142.707 542.358 142.875 543.844 143.517C545.329 144.159 546.599 145.246 547.493 146.641C548.386 148.036 548.863 149.676 548.863 151.354C548.863 152.468 548.652 153.571 548.244 154.601C547.835 155.63 547.236 156.565 546.481 157.353C545.726 158.141 544.83 158.765 543.844 159.192C542.857 159.618 541.8 159.837 540.732 159.837Z" fill="#CCCCCC"/>
<path d="M459 62.0569C465.854 62.0569 471.41 56.2598 471.41 49.1088C471.41 41.9577 465.854 36.1606 459 36.1606C452.147 36.1606 446.591 41.9577 446.591 49.1088C446.591 56.2598 452.147 62.0569 459 62.0569Z" fill="white"/>
<path d="M459 30.3564C454.347 30.3564 449.885 32.285 446.594 35.718C443.304 39.1511 441.456 43.8072 441.456 48.6623C441.456 58.7724 459 91.9715 459 91.9715C459 91.9715 476.545 58.7724 476.545 48.6623C476.545 43.8072 474.696 39.1511 471.406 35.718C468.116 32.285 463.653 30.3564 459 30.3564ZM459 57.592C457.392 57.592 455.82 57.0945 454.483 56.1623C453.146 55.2302 452.104 53.9053 451.489 52.3552C450.873 50.805 450.712 49.0993 451.026 47.4538C451.34 45.8082 452.114 44.2966 453.251 43.1102C454.388 41.9238 455.837 41.1158 457.414 40.7885C458.991 40.4612 460.626 40.6292 462.112 41.2713C463.597 41.9133 464.867 43.0007 465.76 44.3957C466.654 45.7908 467.131 47.4309 467.131 49.1088C467.131 50.2228 466.92 51.3259 466.512 52.3552C466.103 53.3844 465.504 54.3196 464.749 55.1074C463.994 55.8951 463.098 56.52 462.112 56.9463C461.125 57.3726 460.068 57.592 459 57.592Z" fill="#CCCCCC"/>
<path d="M490.666 233.954C497.52 233.954 503.076 228.157 503.076 221.006C503.076 213.855 497.52 208.058 490.666 208.058C483.812 208.058 478.256 213.855 478.256 221.006C478.256 228.157 483.812 233.954 490.666 233.954Z" fill="white"/>
<path d="M490.666 202.254C486.013 202.254 481.55 204.182 478.26 207.615C474.97 211.048 473.121 215.705 473.121 220.56C473.121 230.67 490.666 263.869 490.666 263.869C490.666 263.869 508.211 230.67 508.211 220.56C508.211 218.156 507.757 215.775 506.875 213.554C505.993 211.333 504.701 209.315 503.072 207.615C501.443 205.916 499.509 204.567 497.38 203.647C495.251 202.727 492.97 202.254 490.666 202.254ZM490.666 229.489C489.058 229.489 487.486 228.992 486.149 228.06C484.812 227.128 483.77 225.803 483.154 224.253C482.539 222.702 482.378 220.997 482.692 219.351C483.006 217.706 483.78 216.194 484.917 215.008C486.054 213.821 487.503 213.013 489.08 212.686C490.657 212.359 492.292 212.527 493.777 213.169C495.263 213.811 496.533 214.898 497.426 216.293C498.32 217.688 498.796 219.328 498.796 221.006C498.796 222.12 498.586 223.223 498.178 224.253C497.769 225.282 497.17 226.217 496.415 227.005C495.66 227.792 494.764 228.417 493.777 228.844C492.791 229.27 491.734 229.489 490.666 229.489Z" fill="#3F3D56"/>
<path d="M386.682 134.388C393.536 134.388 399.092 128.591 399.092 121.44C399.092 114.289 393.536 108.491 386.682 108.491C379.829 108.491 374.273 114.289 374.273 121.44C374.273 128.591 379.829 134.388 386.682 134.388Z" fill="white"/>
<path d="M386.682 102.687C382.029 102.687 377.567 104.616 374.276 108.049C370.986 111.482 369.138 116.138 369.138 120.993C369.138 131.103 386.682 164.302 386.682 164.302C386.682 164.302 404.227 131.103 404.227 120.993C404.227 116.138 402.378 111.482 399.088 108.049C395.798 104.616 391.335 102.687 386.682 102.687ZM386.682 129.923C385.074 129.923 383.502 129.425 382.165 128.493C380.828 127.561 379.786 126.236 379.171 124.686C378.555 123.136 378.394 121.43 378.708 119.785C379.022 118.139 379.796 116.627 380.933 115.441C382.07 114.255 383.519 113.447 385.096 113.119C386.673 112.792 388.308 112.96 389.794 113.602C391.279 114.244 392.549 115.331 393.442 116.727C394.336 118.122 394.813 119.762 394.813 121.44C394.813 122.554 394.602 123.657 394.194 124.686C393.785 125.715 393.186 126.65 392.431 127.438C391.676 128.226 390.78 128.851 389.794 129.277C388.807 129.703 387.75 129.923 386.682 129.923Z" fill="#3F3D56"/>
<path d="M509.494 98.2223C516.348 98.2223 521.904 92.4253 521.904 85.2742C521.904 78.1232 516.348 72.3261 509.494 72.3261C502.641 72.3261 497.085 78.1232 497.085 85.2742C497.085 92.4253 502.641 98.2223 509.494 98.2223Z" fill="white"/>
<path d="M509.494 66.5218C504.841 66.5218 500.379 68.4505 497.088 71.8835C493.798 75.3165 491.95 79.9727 491.95 84.8277C491.95 94.9378 509.494 128.137 509.494 128.137C509.494 128.137 527.039 94.9378 527.039 84.8277C527.039 79.9727 525.19 75.3165 521.9 71.8835C518.61 68.4505 514.147 66.5218 509.494 66.5218ZM509.494 93.7575C507.886 93.7575 506.314 93.26 504.977 92.3278C503.64 91.3956 502.598 90.0707 501.983 88.5206C501.367 86.9705 501.206 85.2648 501.52 83.6192C501.834 81.9736 502.608 80.4621 503.745 79.2757C504.882 78.0893 506.331 77.2813 507.908 76.954C509.485 76.6266 511.12 76.7946 512.606 77.4367C514.091 78.0788 515.361 79.1661 516.255 80.5612C517.148 81.9563 517.625 83.5964 517.625 85.2742C517.625 87.5241 516.768 89.6819 515.243 91.2728C513.719 92.8637 511.651 93.7575 509.494 93.7575V93.7575Z" fill="#3F3D56"/>
<path d="M153.126 481.961L163.003 480.791L163.38 440.486L148.803 442.212L153.126 481.961Z" fill="#FFB8B8"/>
<path d="M183.091 488.105L152.051 491.781L150.69 479.267L169.737 477.012C172.918 476.635 176.112 477.592 178.616 479.673C181.121 481.753 182.731 484.787 183.091 488.105Z" fill="#2F2E41"/>
<path d="M51.5513 481.317L61.4915 481.316L66.22 441.312L51.5497 441.313L51.5513 481.317Z" fill="#FFB8B8"/>
<path d="M80.662 490.946L49.4219 490.948L49.4213 478.354L68.5914 478.353C71.7926 478.353 74.8627 479.68 77.1264 482.041C79.39 484.403 80.6618 487.606 80.662 490.946Z" fill="#2F2E41"/>
<path d="M122.869 302.422L128.545 321.684L159.354 391.249L167.462 457.234L148.814 458.08L137.463 397.171L98.5456 353.18L64.4927 468.232L49.0878 466.54C49.0878 466.54 62.0603 317.649 79.8976 302.422C79.8976 302.422 109.086 288.041 122.869 302.422Z" fill="#2F2E41"/>
<path d="M97.6933 219.309C108.691 219.309 117.607 210.006 117.607 198.531C117.607 187.056 108.691 177.753 97.6933 177.753C86.6953 177.753 77.7796 187.056 77.7796 198.531C77.7796 210.006 86.6953 219.309 97.6933 219.309Z" fill="#FFB8B8"/>
<path d="M124.896 306.229C124.896 306.229 127.328 219.94 93.2755 225.862C59.2226 231.784 73.4113 315.112 73.4113 315.112C73.4113 315.112 80.7084 330.339 98.5456 313.42C116.383 296.5 124.896 306.229 124.896 306.229Z" fill="#CCCCCC"/>
<path opacity="0.2" d="M77.871 262.238L85.884 294.286L98.0919 307.025L81.1141 301.153L77.871 262.238Z" fill="black"/>
<path d="M125.148 342.722C124.027 342.299 123.009 341.624 122.166 340.745C121.322 339.866 120.674 338.805 120.266 337.636C119.858 336.468 119.701 335.22 119.805 333.981C119.909 332.742 120.272 331.542 120.869 330.466L101.93 307.588L116.86 305.56L132.556 327.596C134.223 328.762 135.422 330.526 135.926 332.552C136.43 334.579 136.204 336.728 135.291 338.593C134.378 340.457 132.841 341.908 130.971 342.669C129.102 343.43 127.03 343.449 125.148 342.722Z" fill="#FFB8B8"/>
<path d="M102.089 243.437L104.221 287.195L129.355 321.033L118.815 329.493L84.7622 293.962C84.7622 293.962 72.6005 250.818 81.5191 238.128C84.8636 233.37 88.5501 232.061 91.8519 232.284C94.5684 232.52 97.1086 233.784 98.9941 235.839C100.88 237.893 101.98 240.595 102.089 243.437Z" fill="#CCCCCC"/>
<path d="M95.3249 220.363C95.42 220.274 95.4939 220.163 95.5408 220.039C95.5877 219.915 95.6063 219.782 95.595 219.649C95.5837 219.516 95.543 219.388 95.4759 219.275C95.4089 219.161 95.3174 219.066 95.2088 218.996C93.4405 217.853 91.9997 216.234 91.0379 214.31C90.0761 212.386 89.6288 210.227 89.743 208.06C89.8571 205.893 90.5285 203.798 91.6866 201.995C92.8447 200.192 94.4468 198.748 96.3245 197.815C102.179 194.902 110.113 197.168 114.441 191.571C115.321 190.374 115.943 188.992 116.266 187.521C116.588 186.05 116.602 184.524 116.308 183.046C115.374 177.76 111.565 173.834 107.3 171.144C102.06 167.839 96.0378 166.131 89.9156 166.214C83.7933 166.297 77.8158 168.168 72.6602 171.614C67.5046 175.06 63.377 179.944 60.7453 185.712C58.1135 191.48 57.0827 197.902 57.7697 204.25C58.3202 209.338 59.8248 215.043 56.9254 219.174C54.3736 222.809 49.5569 223.491 45.3257 224.394C36.2505 226.332 27.4952 230.801 21.3366 238.021C15.178 245.241 11.8926 255.37 13.7494 264.84C15.6062 274.309 23.0556 282.63 32.2115 284.098C39.6639 285.293 47.3591 281.991 52.8317 276.579C58.3044 271.167 61.7637 263.86 63.9456 256.329C66.5354 247.391 67.5569 237.76 72.2325 229.798C76.8078 222.007 86.6676 216.422 94.3952 220.479C94.5433 220.56 94.7114 220.592 94.8773 220.571C95.0432 220.551 95.1992 220.478 95.3249 220.363Z" fill="#2F2E41"/>
<path d="M249.722 492H0.810788C0.595755 492 0.389528 491.911 0.237476 491.752C0.0854249 491.594 3.8147e-06 491.378 3.8147e-06 491.154C3.8147e-06 490.93 0.0854249 490.715 0.237476 490.556C0.389528 490.397 0.595755 490.308 0.810788 490.308H249.722C249.937 490.308 250.143 490.397 250.295 490.556C250.447 490.715 250.532 490.93 250.532 491.154C250.532 491.378 250.447 491.594 250.295 491.752C250.143 491.911 249.937 492 249.722 492Z" fill="#3F3D56"/>
</g>
<defs>
<clipPath id="clip0">
<rect width="655" height="492" fill="white"/>
</clipPath>
</defs>
</svg>
